<svg xmlns="http://www.w3.org/2000/svg" viewBox="0 0 75 75">
  <defs>
    <style>
      .cls-1 {
        fill: #28d9cd;
      }
    </style>
  </defs>
  <title>Монтажная область 12</title>
  <g id="_12" data-name="12">
    <path class="cls-1" d="M63.9,64.25H13.57a1,1,0,0,1-1-1V12.9a1,1,0,0,1,1-1H63.9a1,1,0,0,1,1,1V63.23A1,1,0,0,1,63.9,64.25Zm-49.3-2H62.87V13.93H14.6Z"/>
    <g>
      <path class="cls-1" d="M57,57.38l-.21,0-.19-.06a.86.86,0,0,1-.18-.09l-.15-.13a1,1,0,0,1-.31-.72,1,1,0,0,1,.31-.72l.15-.13.18-.1.19-.05a1,1,0,0,1,.4,0l.19.05.18.1.16.13a1,1,0,0,1,.3.72,1,1,0,0,1-.3.72l-.16.13a.87.87,0,0,1-.18.09l-.19.06Z"/>
      <path class="cls-1" d="M46.79,56.36a1,1,0,0,1,1-1h0a1,1,0,0,1,1,1h0a1,1,0,0,1-1,1h0A1,1,0,0,1,46.79,56.36Zm-9.15,0a1,1,0,0,1,1-1h0a1,1,0,0,1,1,1h0a1,1,0,0,1-1,1h0A1,1,0,0,1,37.64,56.36Zm-9.14,0a1,1,0,0,1,1-1h0a1,1,0,0,1,1,1h0a1,1,0,0,1-1,1h0A1,1,0,0,1,28.5,56.36Z"/>
      <path class="cls-1" d="M20.38,57.38a1,1,0,0,1-1-1,1,1,0,0,1,.3-.72l.16-.13.18-.1.19-.05a1,1,0,0,1,1.22,1,1,1,0,0,1-.3.72A1,1,0,0,1,20.38,57.38Z"/>
      <path class="cls-1" d="M19.36,47.21a1,1,0,0,1,1-1h0a1,1,0,0,1,1,1h0a1,1,0,0,1-1,1h0A1,1,0,0,1,19.36,47.21Zm0-9.14a1,1,0,0,1,1-1h0a1,1,0,0,1,1,1h0a1,1,0,0,1-1,1h0A1,1,0,0,1,19.36,38.07Zm0-9.15a1,1,0,0,1,1-1h0a1,1,0,0,1,1,1h0a1,1,0,0,1-1,1h0A1,1,0,0,1,19.36,28.92Z"/>
      <path class="cls-1" d="M20.38,20.8l-.2,0L20,20.72a.91.91,0,0,1-.46-.38.88.88,0,0,1-.1-.18,1,1,0,0,1,0-.78,1.12,1.12,0,0,1,.1-.18.65.65,0,0,1,.12-.15,1.06,1.06,0,0,1,1.45,0,1,1,0,0,1,.3.72,1.06,1.06,0,0,1,0,.2,1,1,0,0,1-.05.19,1.5,1.5,0,0,1-.1.18,1,1,0,0,1-.13.16A1,1,0,0,1,20.38,20.8Z"/>
      <path class="cls-1" d="M46.79,19.78a1,1,0,0,1,1-1h0a1,1,0,0,1,1,1h0a1,1,0,0,1-1,1h0A1,1,0,0,1,46.79,19.78Zm-9.15,0a1,1,0,0,1,1-1h0a1,1,0,0,1,1,1h0a1,1,0,0,1-1,1h0A1,1,0,0,1,37.64,19.78Zm-9.14,0a1,1,0,0,1,1-1h0a1,1,0,0,1,1,1h0a1,1,0,0,1-1,1h0A1,1,0,0,1,28.5,19.78Z"/>
      <path class="cls-1" d="M57,20.8l-.21,0-.19-.06a.88.88,0,0,1-.18-.1.66.66,0,0,1-.15-.12,1,1,0,0,1,0-1.45,1.34,1.34,0,0,1,.15-.12l.18-.1a.67.67,0,0,1,.19-.05,1,1,0,0,1,.93.27,1,1,0,0,1,0,1.45,1.17,1.17,0,0,1-.33.22l-.19.06Z"/>
      <path class="cls-1" d="M55.94,47.21a1,1,0,0,1,1-1h0a1,1,0,0,1,1,1h0a1,1,0,0,1-1,1h0A1,1,0,0,1,55.94,47.21Zm0-9.14a1,1,0,0,1,1-1h0a1,1,0,0,1,1,1h0a1,1,0,0,1-1,1h0A1,1,0,0,1,55.94,38.07Zm0-9.15a1,1,0,0,1,1-1h0a1,1,0,0,1,1,1h0a1,1,0,0,1-1,1h0A1,1,0,0,1,55.94,28.92Z"/>
    </g>
    <path class="cls-1" d="M18.34,13.93a1,1,0,0,1-1-1V4.3a1,1,0,1,1,2,0v8.6A1,1,0,0,1,18.34,13.93Z"/>
    <path class="cls-1" d="M25.28,13.93a1,1,0,0,1-1-1V4.3a1,1,0,0,1,2,0v8.6A1,1,0,0,1,25.28,13.93Z"/>
    <path class="cls-1" d="M32.22,13.93a1,1,0,0,1-1-1V4.3a1,1,0,1,1,2,0v8.6A1,1,0,0,1,32.22,13.93Z"/>
    <path class="cls-1" d="M39.16,13.93a1,1,0,0,1-1-1V4.3a1,1,0,0,1,2,0v8.6A1,1,0,0,1,39.16,13.93Z"/>
    <path class="cls-1" d="M46.1,13.93a1,1,0,0,1-1-1V4.3a1,1,0,0,1,2,0v8.6A1,1,0,0,1,46.1,13.93Z"/>
    <path class="cls-1" d="M53,13.93a1,1,0,0,1-1-1V4.3a1,1,0,1,1,2,0v8.6A1,1,0,0,1,53,13.93Z"/>
    <path class="cls-1" d="M60,13.93a1,1,0,0,1-1-1V4.3a1,1,0,0,1,2,0v8.6A1,1,0,0,1,60,13.93Z"/>
    <path class="cls-1" d="M17.92,72.85a1,1,0,0,1-1-1v-8.6a1,1,0,0,1,2,0v8.6A1,1,0,0,1,17.92,72.85Z"/>
    <path class="cls-1" d="M24.86,72.85a1,1,0,0,1-1-1v-8.6a1,1,0,1,1,2,0v8.6A1,1,0,0,1,24.86,72.85Z"/>
    <path class="cls-1" d="M31.8,72.85a1,1,0,0,1-1-1v-8.6a1,1,0,0,1,2,0v8.6A1,1,0,0,1,31.8,72.85Z"/>
    <path class="cls-1" d="M38.74,72.85a1,1,0,0,1-1-1v-8.6a1,1,0,1,1,2,0v8.6A1,1,0,0,1,38.74,72.85Z"/>
    <path class="cls-1" d="M45.68,72.85a1,1,0,0,1-1-1v-8.6a1,1,0,1,1,2,0v8.6A1,1,0,0,1,45.68,72.85Z"/>
    <path class="cls-1" d="M52.62,72.85a1,1,0,0,1-1-1v-8.6a1,1,0,1,1,2,0v8.6A1,1,0,0,1,52.62,72.85Z"/>
    <path class="cls-1" d="M59.56,72.85a1,1,0,0,1-1-1v-8.6a1,1,0,1,1,2,0v8.6A1,1,0,0,1,59.56,72.85Z"/>
    <path class="cls-1" d="M13.36,59.7H4.76a1,1,0,1,1,0-2h8.6a1,1,0,1,1,0,2Z"/>
    <path class="cls-1" d="M13.36,52.76H4.76a1,1,0,1,1,0-2h8.6a1,1,0,1,1,0,2Z"/>
    <path class="cls-1" d="M13.36,45.82H4.76a1,1,0,0,1,0-2h8.6a1,1,0,0,1,0,2Z"/>
    <path class="cls-1" d="M13.36,38.88H4.76a1,1,0,0,1,0-2h8.6a1,1,0,0,1,0,2Z"/>
    <path class="cls-1" d="M13.36,31.94H4.76a1,1,0,0,1,0-2h8.6a1,1,0,0,1,0,2Z"/>
    <path class="cls-1" d="M13.36,25H4.76a1,1,0,0,1,0-2h8.6a1,1,0,0,1,0,2Z"/>
    <path class="cls-1" d="M13.36,18.06H4.76a1,1,0,0,1,0-2h8.6a1,1,0,0,1,0,2Z"/>
    <path class="cls-1" d="M72.71,60.13h-8.6a1,1,0,1,1,0-2h8.6a1,1,0,1,1,0,2Z"/>
    <path class="cls-1" d="M72.71,53.18h-8.6a1,1,0,0,1,0-2h8.6a1,1,0,0,1,0,2Z"/>
    <path class="cls-1" d="M72.71,46.24h-8.6a1,1,0,0,1,0-2h8.6a1,1,0,1,1,0,2Z"/>
    <path class="cls-1" d="M72.71,39.3h-8.6a1,1,0,1,1,0-2h8.6a1,1,0,0,1,0,2Z"/>
    <path class="cls-1" d="M72.71,32.36h-8.6a1,1,0,0,1,0-2h8.6a1,1,0,1,1,0,2Z"/>
    <path class="cls-1" d="M72.71,25.42h-8.6a1,1,0,0,1,0-2h8.6a1,1,0,1,1,0,2Z"/>
    <path class="cls-1" d="M72.71,18.48h-8.6a1,1,0,1,1,0-2h8.6a1,1,0,1,1,0,2Z"/>
  </g>
</svg>
