<svg id="_1" data-name="1" xmlns="http://www.w3.org/2000/svg" viewBox="0 0 75 75">
  <defs>
    <style>
      .cls-1 {
        fill: #28d9cd;
      }
    </style>
  </defs>
  <title>Монтажная область 1</title>
  <path class="cls-1" d="M63,72.6H43.39a4.79,4.79,0,0,1-1-.11,51.54,51.54,0,0,1-23-5,1,1,0,0,1-.58-.92V33.85A1,1,0,0,1,19.3,33c5-3.17,10-6.4,10.91-7L47.55,4.95a3,3,0,0,1,4.68,0,9.59,9.59,0,0,1,1.15,10A42.53,42.53,0,0,0,51.23,20l-2.69,8.19,17.37,0c3,0,5.45,2.83,5.45,6.31A6.82,6.82,0,0,1,69.81,39a6.2,6.2,0,0,1,4.5,6,6.79,6.79,0,0,1-1.83,4.91,5.26,5.26,0,0,1-2.19,1.37,6.8,6.8,0,0,1,1.63,4.49c0,3.21-2.09,5.87-4.78,6.26a6.89,6.89,0,0,1,1.48,4.51C68.53,69.86,66,72.6,63,72.6ZM42.49,70.46l.24,0a2.78,2.78,0,0,0,.66.08H63c1.93,0,3.55-1.86,3.61-4.14A4.75,4.75,0,0,0,65.33,63a3,3,0,0,0-2.17-1,1,1,0,1,1,0-2h3.3c1.89,0,3.42-1.92,3.42-4.27s-1.54-4.27-3.42-4.27a1,1,0,1,1,0-2h2.39a3,3,0,0,0,2.17-1A4.75,4.75,0,0,0,72.28,45h0c-.06-2.28-1.68-4.14-3.61-4.14H65.91a1,1,0,1,1,0-2c1.89,0,3.42-1.92,3.42-4.27s-1.54-4.27-3.42-4.27l-18.78,0a1,1,0,0,1-1-1.33l3.13-9.52a45.24,45.24,0,0,1,2.25-5.33,7.5,7.5,0,0,0-.88-7.84,1,1,0,0,0-1.56,0L31.68,27.44a1,1,0,0,1-.23.21c-.05,0-5.23,3.38-10.59,6.76V65.89a49.91,49.91,0,0,0,21.62,4.57Z"/>
  <path class="cls-1" d="M17.65,69.85H7.53a3.22,3.22,0,0,1-3.21-3.21V32.78a3.22,3.22,0,0,1,3.21-3.21H17.65a3.22,3.22,0,0,1,3.21,3.21V66.64A3.22,3.22,0,0,1,17.65,69.85ZM7.53,31.6a1.18,1.18,0,0,0-1.18,1.18V66.64a1.18,1.18,0,0,0,1.18,1.18H17.65a1.18,1.18,0,0,0,1.18-1.18V32.78a1.18,1.18,0,0,0-1.18-1.18Z"/>
  <path class="cls-1" d="M12.59,64.11a3.17,3.17,0,1,1,3.17-3.17A3.17,3.17,0,0,1,12.59,64.11Zm0-4.3a1.14,1.14,0,1,0,1.14,1.14A1.14,1.14,0,0,0,12.59,59.81Z"/>
</svg>
