<?xml version="1.0" encoding="utf-8"?>
<!-- Generator: Adobe Illustrator 17.1.0, SVG Export Plug-In . SVG Version: 6.00 Build 0)  -->
<!DOCTYPE svg PUBLIC "-//W3C//DTD SVG 1.1//EN" "http://www.w3.org/Graphics/SVG/1.1/DTD/svg11.dtd">
<svg version="1.1" id="Capa_1" xmlns="http://www.w3.org/2000/svg" xmlns:xlink="http://www.w3.org/1999/xlink" x="0px" y="0px"
	 viewBox="0 0 512 512" enable-background="new 0 0 512 512" xml:space="preserve">
<g>
	<g>
		<g>
			<path fill="#BCBCBC" d="M256,60c-57.9,0-105,47.1-105,105c0,35.9,18.1,69,48.5,88.5c31,19.9,69.1,22,104.4,5.7
				c7.5-3.5,10.8-12.4,7.4-19.9c-3.5-7.5-12.4-10.8-19.9-7.4c-25.9,11.9-53.5,10.5-75.7-3.7C194,214.3,181,190.7,181,165
				c0-41.4,33.6-75,75-75s75,33.6,75,75c0,8.3-6.7,15-15,15c-7.6,0-14.6-5.7-15-14.8c0-0.1,0-0.2,0-0.2c0-24.8-20.2-45-45-45
				s-45,20.2-45,45s20.2,45,45,45c11.5,0,22-4.4,30-11.5c8,7.1,18.5,11.5,30,11.5c24.8,0,45-20.2,45-45C361,107.1,313.9,60,256,60z
				 M270.8,167.4c-1.2,7.1-7.3,12.6-14.8,12.6c-8.3,0-15-6.7-15-15s6.7-15,15-15c7.7,0,14,5.8,14.9,13.3
				C270.7,164.6,270.6,166,270.8,167.4z"/>
		</g>
	</g>
	<g>
		<g>
			<path fill="#BCBCBC" d="M481,197c0-3.9-1.6-7.8-4.4-10.6L421,130.8V15c0-8.3-6.7-15-15-15H106c-8.3,0-15,6.7-15,15v115.8
				l-55.6,55.6c-0.1,0.1-0.1,0.1-0.1,0.2c-2.8,2.9-4.2,6.7-4.2,10.4c0,0,0,0,0,0v270c0,24.8,20.2,45,45,45h360c24.8,0,45-20.2,45-45
				L481,197C481,197,481,197,481,197z M421,173.2l23.8,23.8L421,220.8V173.2z M121,137C121,137,121,137,121,137V30h270v107
				c0,0,0,0,0,0v113.8L309.8,332H202.2L121,250.8V137z M91,173.2v47.6L67.2,197L91,173.2z M61,460.8V233.2L174.8,347L61,460.8z
				 M82.2,482l120-120h107.6l120,120H82.2z M451,460.8L337.2,347L451,233.2V460.8z"/>
		</g>
	</g>
</g>
</svg>
