<?xml version="1.0" encoding="utf-8"?>
<!-- Generator: Adobe Illustrator 17.1.0, SVG Export Plug-In . SVG Version: 6.00 Build 0)  -->
<!DOCTYPE svg PUBLIC "-//W3C//DTD SVG 1.1//EN" "http://www.w3.org/Graphics/SVG/1.1/DTD/svg11.dtd">
<svg version="1.1" id="Capa_1" xmlns="http://www.w3.org/2000/svg" xmlns:xlink="http://www.w3.org/1999/xlink" x="0px" y="0px"
	 viewBox="0 0 2000 2000" enable-background="new 0 0 2000 2000" xml:space="preserve">
<g>
	<g>
		<path fill="#BCBCBC" d="M1662.6,1193.7c-0.8-0.3-1.6-0.5-2.5-0.8l-218.9-62.4l-155.4-148.3v-39.9
			c74.4-74.3,121.2-176.9,121.2-290.1V410.1C1407,184.6,1224.4,0,997.7,0C771.5,0,587.5,184,587.5,410.2v242.2
			c0,113.2,46.9,215.8,121.2,290.1v39.9l-154.4,148L339.5,1193c-0.7,0.2-1.4,0.4-2.1,0.7c-94.3,31.4-149.5,131.2-126.3,227.7
			l103.6,531.2c5.5,28,30,47.4,57.4,47.4c1.6,0,3.3-0.1,4.9-0.2c1.5,0.1,3,0.2,4.5,0.2h1240.7c27.8,0,51.8-19.6,57.4-46.8
			l109.2-531.5C1812.3,1325.1,1757,1225.2,1662.6,1193.7z M1331.9,1187.9l-167.6,251.4l-91.4-91.4l165.8-249.8L1331.9,1187.9z
			 M997.7,117.2c95.7,0,180.8,46.1,234.3,117.3c-55,73-141.9,117.1-234.3,117.1H710.6C737.8,218,856.2,117.2,997.7,117.2z
			 M703.9,652.3V468.7h293.8c108.4,0,211.3-43.3,287-117.4c3.9,19,5.9,38.7,5.9,58.8v242.2c0,161.5-131.4,293-293,293
			C836.1,945.3,703.9,813.9,703.9,652.3z M756.6,1098.1l165.8,249.8l-91.4,91.4l-167.6-251.4L756.6,1098.1z M939.1,1882.8H420.5
			c-0.4-2.2-94.7-486-95.3-488.2c-9.4-37.6,11.8-76.7,48.4-89.4l190.2-55.5l209.4,314.1c20.5,30.7,64,35.1,90.2,8.9l75.8-75.8
			L939.1,1882.8L939.1,1882.8z M857.1,1037.7c43.9,16,91.2,24.8,140.5,24.8c49.3,0,96.7-8.8,140.5-24.8l-140.5,211.8L857.1,1037.7z
			 M1674.3,1397l-99.8,485.8h-519v-385.9l76.5,75.8c26.1,26.2,69.7,21.8,90.2-8.9l209.4-314.1l195,55.6
			C1658.6,1316.4,1684.2,1349.3,1674.3,1397z"/>
	</g>
</g>
<g>
	<g>
		<path fill="#BCBCBC" d="M1466.4,1648.4h-117.2c-32.4,0-58.6,26.2-58.6,58.6c0,32.4,26.2,58.6,58.6,58.6h117.2
			c32.4,0,58.6-26.2,58.6-58.6C1525,1674.7,1498.8,1648.4,1466.4,1648.4z"/>
	</g>
</g>
</svg>
