<?xml version="1.0" encoding="utf-8"?>
<!-- Generator: Adobe Illustrator 17.1.0, SVG Export Plug-In . SVG Version: 6.00 Build 0)  -->
<!DOCTYPE svg PUBLIC "-//W3C//DTD SVG 1.1//EN" "http://www.w3.org/Graphics/SVG/1.1/DTD/svg11.dtd">
<svg version="1.1" id="Capa_1" xmlns="http://www.w3.org/2000/svg" xmlns:xlink="http://www.w3.org/1999/xlink" x="0px" y="0px"
	 viewBox="0 0 2000 2000" enable-background="new 0 0 2000 2000" xml:space="preserve">
<g>
	<g>
		<path fill="#BCBCBC" d="M1948.5,1475.1l-248.6-248.6c-68.5-68.5-180.1-68.5-248.6,0l-113,113c-51.9,51.9-136.4,51.9-188.3,0
			L660.1,849.3c-52.1-52.1-52.1-136.3,0-188.4c18.2-18.2,70.5-70.5,113-113c68.2-68.2,69.2-179.4-0.1-248.7L524.5,51.4
			C455.9-17.1,344.4-17.1,276,51.3c-51.2,50.7-67.7,67.1-90.6,89.8c-247.2,247.2-247.2,649.4,0,896.6l776.1,776.5
			c247.8,247.8,648.8,247.8,896.6,0l90.4-90.4C2017.1,1655.2,2017.1,1543.7,1948.5,1475.1z M358.7,134.3c22.8-22.8,60-22.9,82.9,0.1
			l248.6,247.8c22.9,22.9,22.9,60,0,82.9l-41.4,41.4L317.5,175.2L358.7,134.3z M1044.5,1731.3L268.3,954.7
			C77.1,763.5,66.6,463.2,236,259.4l330.3,330.3c-86.8,98.4-83.2,248.3,10.9,342.4l489.8,490.2c0,0,0,0,0,0
			c94,94,243.9,97.8,342.4,10.9l330.3,330.3C1536.6,1932.8,1237,1923.9,1044.5,1731.3z M1865.7,1640.9l-41.4,41.4l-331.5-331.5
			l41.4-41.4c22.9-22.8,60-22.9,82.9,0l248.6,248.6C1888.5,1580.9,1888.5,1618,1865.7,1640.9z"/>
	</g>
</g>
</svg>
