<?xml version="1.0" encoding="utf-8"?>
<!-- Generator: Adobe Illustrator 17.1.0, SVG Export Plug-In . SVG Version: 6.00 Build 0)  -->
<!DOCTYPE svg PUBLIC "-//W3C//DTD SVG 1.1//EN" "http://www.w3.org/Graphics/SVG/1.1/DTD/svg11.dtd">
<svg version="1.1" id="Capa_1" xmlns="http://www.w3.org/2000/svg" xmlns:xlink="http://www.w3.org/1999/xlink" x="0px" y="0px"
	 viewBox="0 0 2000 2000" enable-background="new 0 0 2000 2000" xml:space="preserve">
<g>
	<g>
		<path fill="#BCBCBC" d="M1948.4,629.4c-68.5-68.5-180.1-68.5-248.6,0c-21.1,21.1-155.7,155.8-176.3,176.4V341.5
			c0-47-18.3-91.1-51.5-124.3L1306.3,51.5C1273.1,18.3,1229,0,1182,0H175.9C78.9,0,0.1,78.9,0.1,175.8v1648.4
			c0,96.9,78.9,175.8,175.8,175.8h1171.9c96.9,0,175.8-78.9,175.8-175.8v-521L1948.4,878C2017.1,809.3,2017.1,698.1,1948.4,629.4z
			 M1171.9,117.2c11.1,0,32.4-1.9,51.5,17.2l165.7,165.7c18.6,18.6,17.2,39,17.2,51.5h-234.4V117.2z M1406.3,1824.2
			c0,32.3-26.3,58.6-58.6,58.6H175.9c-32.3,0-58.6-26.3-58.6-58.6V175.8c0-32.3,26.3-58.6,58.6-58.6h878.9v293
			c0,32.4,26.2,58.6,58.6,58.6h293v454.4c0,0-172.9,173-172.9,173l-82.8,82.8c-6.4,6.4-11.3,14.3-14.2,22.9l-82.9,248.6
			c-7,21.1-1.5,44.3,14.2,60c15.7,15.7,38.9,21.2,60,14.2l248.6-82.9c8.6-2.9,16.5-7.7,22.9-14.2l7.1-7.1L1406.3,1824.2
			L1406.3,1824.2z M1274.9,1220.4l82.9,82.9l-31.7,31.7l-124.3,41.4l41.4-124.3L1274.9,1220.4z M1440.6,1220.4l-82.9-82.9
			c44.1-44.2,240.1-240.3,281.7-281.9l82.9,82.9L1440.6,1220.4z M1865.5,795.1l-60.4,60.5l-82.9-82.9l60.4-60.5
			c22.9-22.8,60-22.8,82.9,0C1888.4,735.1,1888.5,772.2,1865.5,795.1z"/>
	</g>
</g>
<g>
	<g>
		<path fill="#BCBCBC" d="M1113.4,585.9H293c-32.4,0-58.6,26.2-58.6,58.6s26.2,58.6,58.6,58.6h820.3c32.4,0,58.6-26.2,58.6-58.6
			S1145.7,585.9,1113.4,585.9z"/>
	</g>
</g>
<g>
	<g>
		<path fill="#BCBCBC" d="M879,820.3H293c-32.4,0-58.6,26.2-58.6,58.6s26.2,58.6,58.6,58.6H879c32.4,0,58.6-26.2,58.6-58.6
			S911.3,820.3,879,820.3z"/>
	</g>
</g>
<g>
	<g>
		<path fill="#BCBCBC" d="M879,1054.7H293c-32.4,0-58.6,26.2-58.6,58.6s26.2,58.6,58.6,58.6H879c32.4,0,58.6-26.2,58.6-58.6
			S911.3,1054.7,879,1054.7z"/>
	</g>
</g>
<g>
	<g>
		<path fill="#BCBCBC" d="M879,1289.1H293c-32.4,0-58.6,26.2-58.6,58.6s26.2,58.6,58.6,58.6H879c32.4,0,58.6-26.2,58.6-58.6
			S911.3,1289.1,879,1289.1z"/>
	</g>
</g>
<g>
	<g>
		<path fill="#BCBCBC" d="M1113.4,1648.4H761.8c-32.4,0-58.6,26.2-58.6,58.6s26.2,58.6,58.6,58.6h351.6c32.4,0,58.6-26.2,58.6-58.6
			S1145.7,1648.4,1113.4,1648.4z"/>
	</g>
</g>
</svg>
