<svg xmlns="http://www.w3.org/2000/svg" viewBox="0 0 75 75">
  <defs>
    <style>
      .cls-1 {
        fill: #28d9cd;
      }
    </style>
  </defs>
  <title>Монтажная область 8</title>
  <g id="_8" data-name="8">
    <path class="cls-1" d="M42.26,18.36H31.83a1,1,0,0,1-1-1V9.71a1,1,0,0,1,1-1H42.26a1,1,0,0,1,1,1v7.65A1,1,0,0,1,42.26,18.36Zm-9.43-2h8.43V10.72H32.83Z"/>
    <path class="cls-1" d="M37.12,23.3a1,1,0,0,1-.87-.5L33.4,17.86a1,1,0,0,1,.87-1.51H40a1,1,0,0,1,.87,1.51L38,22.79A1,1,0,0,1,37.12,23.3ZM36,18.36l1.11,1.92,1.11-1.92Z"/>
    <path class="cls-1" d="M71,72.33H3a1,1,0,0,1-1-1v-5a1,1,0,0,1,1-1H71a1,1,0,0,1,1,1v5A1,1,0,0,1,71,72.33Zm-67-2H70v-3H4Z"/>
    <path class="cls-1" d="M70.71,10.72H3.22a1,1,0,0,1-1-1V3.26a1,1,0,0,1,1-1H70.71a1,1,0,0,1,1,1V9.71A1,1,0,0,1,70.71,10.72Zm-66.48-2H69.7V4.27H4.22Z"/>
    <path class="cls-1" d="M42.34,67.31a3.24,3.24,0,0,1-2.37-1,6,6,0,0,1-1.39-4.41,32.18,32.18,0,0,0-1.24-11.5,2.89,2.89,0,0,0-.75,0,32.11,32.11,0,0,0-1.24,11.46A6.07,6.07,0,0,1,34,66.28a3.24,3.24,0,0,1-2.37,1c-2.24,0-5.2-2.28-6.47-5a43.38,43.38,0,0,1-2.61-7.84,40.79,40.79,0,0,0-4.38-11.31,12.32,12.32,0,0,1-1.67-6.06c-.08-7.06,5.93-13,13.68-13.53,1.92-.13,3.66,1,5.19,1.95.37.24.74.47,1.1.68a1,1,0,0,0,1,0c.36-.21.73-.44,1.1-.68,1.53-1,3.26-2.08,5.19-1.95,7.75.52,13.76,6.47,13.68,13.53a12.32,12.32,0,0,1-1.67,6.06A40.77,40.77,0,0,0,51.42,54.5a43.31,43.31,0,0,1-2.6,7.82C47.54,65,44.58,67.31,42.34,67.31ZM37,48.35a4.88,4.88,0,0,1,1.47.23,1,1,0,0,1,.68.68A34.42,34.42,0,0,1,40.58,62a4.11,4.11,0,0,0,.83,2.9,1.24,1.24,0,0,0,.93.41c1.32,0,3.64-1.67,4.65-3.82a41.23,41.23,0,0,0,2.46-7.43,42.77,42.77,0,0,1,4.59-11.87,10.33,10.33,0,0,0,1.4-5.09h0c.07-5.9-5.23-11.06-11.81-11.5-1.27-.1-2.65.79-4,1.64-.4.25-.79.5-1.17.72a3.06,3.06,0,0,1-3.06,0c-.38-.22-.78-.47-1.17-.72-1.33-.85-2.71-1.72-4-1.64C23.7,26,18.4,31.2,18.47,37.1a10.33,10.33,0,0,0,1.4,5.08,42.8,42.8,0,0,1,4.59,11.87,41.29,41.29,0,0,0,2.48,7.46c1,2.12,3.32,3.79,4.64,3.79a1.24,1.24,0,0,0,.93-.41,4.15,4.15,0,0,0,.83-2.94,34.36,34.36,0,0,1,1.47-12.69,1,1,0,0,1,.67-.68A4.92,4.92,0,0,1,37,48.35Z"/>
    <path class="cls-1" d="M52.25,40a1,1,0,0,1-.94-1.35,5.82,5.82,0,0,0,.34-2.45c-.24-3-3-5.6-6.7-6.2a1,1,0,0,1,.32-2c4.62.75,8.07,4,8.38,8a7.82,7.82,0,0,1-.45,3.29A1,1,0,0,1,52.25,40Z"/>
    <path class="cls-1" d="M37,28.31a1,1,0,0,1-1-1v-5a1,1,0,0,1,2,0v5A1,1,0,0,1,37,28.31Z"/>
  </g>
</svg>
