<svg xmlns="http://www.w3.org/2000/svg" viewBox="0 0 75 75">
  <defs>
    <style>
      .cls-1 {
        fill: #28d9cd;
      }
    </style>
  </defs>
  <title>Монтажная область 10</title>
  <g id="_10" data-name="10">
    <path class="cls-1" d="M12.31,68.59a1,1,0,0,1-1-1v-59A3.43,3.43,0,0,0,7.78,5.28h0a1,1,0,0,1,0-2h0l50.38.07a6.42,6.42,0,0,1,6.51,6.29V60.43a1,1,0,1,1-2,0V9.61a4.39,4.39,0,0,0-4.49-4.26l-46-.06a5.21,5.21,0,0,1,1.2,3.32v59A1,1,0,0,1,12.31,68.59Z"/>
    <path class="cls-1" d="M12.31,19.21H3.23a1,1,0,0,1-1-1V8.61A5.46,5.46,0,0,1,7.77,3.26a5.46,5.46,0,0,1,5.55,5.35v9.59A1,1,0,0,1,12.31,19.21Zm-8.06-2h7V8.61A3.43,3.43,0,0,0,7.77,5.28,3.43,3.43,0,0,0,4.25,8.61Z"/>
    <path class="cls-1" d="M16.84,72.9l-.53,0a5.41,5.41,0,0,1-5-5.33,1,1,0,1,1,2,0,3.39,3.39,0,0,0,3.17,3.31l.35,0a3.43,3.43,0,0,0,3.52-3.32v-7a1,1,0,1,1,2,0v7A5.46,5.46,0,0,1,16.84,72.9Z"/>
    <path class="cls-1" d="M66.67,72.9H16.84a1,1,0,0,1,0-2,3.43,3.43,0,0,0,3.52-3.32v-7a1,1,0,0,1,1-1H71.21a1,1,0,0,1,1,1v7A5.46,5.46,0,0,1,66.67,72.9Zm-45.48-2H66.67a3.43,3.43,0,0,0,3.52-3.32V61.61H22.39v5.94A5.21,5.21,0,0,1,21.19,70.87Z"/>
    <path class="cls-1" d="M30.47,56.94a1,1,0,0,1-.87-.49l-1.93-3.22-3.27,1.85a1,1,0,0,1-1.48-1.14l4.51-17.09a1,1,0,0,1,1.4-.66l.52.24a1,1,0,0,1,.58.72l.54,2.64,2.69-.06a1,1,0,0,1,.83.4l1,1.27a1,1,0,0,1,.17.87L31.46,56.19a1,1,0,0,1-.84.75ZM28,50.84a1,1,0,0,1,.87.49l1.2,2L33,42.22l-.35-.46-3,.07a1,1,0,0,1-1-.81l-.1-.47L25.5,52.13l2-1.15A1,1,0,0,1,28,50.84Z"/>
    <path class="cls-1" d="M46.49,56.94h-.14a1,1,0,0,1-.84-.75L41.83,42.26a1,1,0,0,1,.17-.87l1-1.27a1,1,0,0,1,.83-.4l2.69.06L47,37.14a1,1,0,0,1,.57-.72l.52-.24a1,1,0,0,1,1.4.66L54,53.94a1,1,0,0,1-1.48,1.14l-3.27-1.85-1.93,3.22A1,1,0,0,1,46.49,56.94ZM43.92,42.22l2.93,11.12,1.2-2A1,1,0,0,1,49.42,51l2,1.15L48.4,40.54l-.1.47a1,1,0,0,1-1,.81l-3-.07Z"/>
    <path class="cls-1" d="M35.33,44.56a1,1,0,0,1-.81-.4l-1.83-2.41-3,.07a1,1,0,0,1-1-.81l-.6-3L25.3,36.81a1,1,0,0,1-.57-1.17l.74-2.93-1.94-2.32a1,1,0,0,1,0-1.3l1.94-2.32-.74-2.93a1,1,0,0,1,.57-1.17l2.75-1.25.6-3a1,1,0,0,1,1-.81l3,.07,1.83-2.41A1,1,0,0,1,35.79,15l2.69,1.37L41.17,15a1,1,0,0,1,1.27.29l1.83,2.41,3-.07a1,1,0,0,1,1,.81l.6,3,2.75,1.25a1,1,0,0,1,.57,1.17l-.74,2.93,1.94,2.32a1,1,0,0,1,0,1.3L51.49,32.7l.74,2.93a1,1,0,0,1-.57,1.17l-2.75,1.25-.6,3a1,1,0,0,1-1,.81l-3-.07-1.83,2.41a1,1,0,0,1-1.27.29l-2.69-1.38-2.69,1.37A1,1,0,0,1,35.33,44.56Zm3.15-3.64a1,1,0,0,1,.46.11l2.4,1.23L43,40.12a1,1,0,0,1,.83-.4l2.69.06L47,37.14a1,1,0,0,1,.57-.72l2.45-1.11L49.4,32.7a1,1,0,0,1,.2-.9l1.72-2.07L49.6,27.67a1,1,0,0,1-.2-.9l.66-2.61L47.6,23a1,1,0,0,1-.58-.72l-.54-2.64-2.69.06a1,1,0,0,1-.83-.4l-1.63-2.14-2.4,1.23a1,1,0,0,1-.92,0l-2.4-1.23L34,19.35a1,1,0,0,1-.83.4l-2.69-.06-.54,2.64a1,1,0,0,1-.58.72l-2.45,1.11.66,2.61a1,1,0,0,1-.2.9l-1.72,2.07,1.72,2.07a1,1,0,0,1,.2.9l-.66,2.61,2.45,1.11a1,1,0,0,1,.58.72l.54,2.64,2.69-.06a1,1,0,0,1,.83.4l1.63,2.14L38,41A1,1,0,0,1,38.48,40.92Z"/>
  </g>
</svg>
