<svg xmlns="http://www.w3.org/2000/svg" width="53" height="29.75" viewBox="0 0 53 29.75">
  <defs>
    <style>
      .cls-1 {
        fill: #666;
        fill-rule: evenodd;
      }
    </style>
  </defs>
  <path id="x-pro-b.svg" class="cls-1" d="M9,1.46h6.683l6.986,11.846H15.986ZM28.441,6.016h6.683L29.048,16.04H22.365ZM22.365,18.47h6.379l7.594,12.758H29.959Zm-6.683-2.43h6.683L16.29,26.064H9.607ZM42.2,11.786a3.2,3.2,0,0,0-.813-1.206,3.392,3.392,0,0,0-1.267-.722,5.354,5.354,0,0,0-1.646-.238H34.907V21.1h2.547v-3.74H38.47a5.353,5.353,0,0,0,1.646-.238,3.379,3.379,0,0,0,1.267-.722A3.181,3.181,0,0,0,42.2,15.19a4.653,4.653,0,0,0,.285-1.7A4.64,4.64,0,0,0,42.2,11.786Zm-2.7,3a1.678,1.678,0,0,1-1.172.377H37.454V11.819h0.867a1.7,1.7,0,0,1,1.172.369,1.693,1.693,0,0,1,.413,1.3A1.7,1.7,0,0,1,39.493,14.788Zm7.661,2.28L49.308,21.1H52.14l-2.655-4.544A3.159,3.159,0,0,0,50.961,15.2a4.1,4.1,0,0,0,.461-1.952,4.091,4.091,0,0,0-.291-1.615,2.959,2.959,0,0,0-.82-1.124,3.524,3.524,0,0,0-1.26-.664,5.5,5.5,0,0,0-1.6-.222H43.794V21.1h2.547V17.068h0.813Zm1.307-2.707a1.561,1.561,0,0,1-1.077.345H46.341V11.77h1.043a1.561,1.561,0,0,1,1.077.345,1.449,1.449,0,0,1,.386,1.132A1.427,1.427,0,0,1,48.461,14.361ZM61.684,13a5.659,5.659,0,0,0-.9-1.878,4.241,4.241,0,0,0-1.477-1.246,4.739,4.739,0,0,0-4.037,0,4.235,4.235,0,0,0-1.477,1.246,5.654,5.654,0,0,0-.9,1.878,8.7,8.7,0,0,0-.3,2.362,8.7,8.7,0,0,0,.3,2.362,5.651,5.651,0,0,0,.9,1.878,4.231,4.231,0,0,0,1.477,1.247,4.742,4.742,0,0,0,4.037,0A4.237,4.237,0,0,0,60.783,19.6a5.657,5.657,0,0,0,.9-1.878,8.692,8.692,0,0,0,.3-2.362A8.693,8.693,0,0,0,61.684,13ZM58.8,18.085a1.675,1.675,0,0,1-3.021,0,5.633,5.633,0,0,1-.535-2.723,5.632,5.632,0,0,1,.535-2.723,1.675,1.675,0,0,1,3.021,0,5.633,5.633,0,0,1,.535,2.723A5.634,5.634,0,0,1,58.8,18.085Z" transform="translate(-9 -1.469)"/>
</svg>
