<svg xmlns="http://www.w3.org/2000/svg" width="68.188" height="31.281" viewBox="0 0 68.188 31.281">
  <defs>
    <style>
      .cls-1 {
        fill: #e9e9e9;
        fill-rule: evenodd;
      }
    </style>
  </defs>
  <path id="xl-pro-w.svg" class="cls-1" d="M1,2.067H7.683l6.986,11.846H7.986ZM20.441,6.624h6.683L21.048,16.648H14.365ZM14.365,19.078h6.379l7.594,12.758H21.959Zm-6.683-2.43h6.683L8.29,26.672H1.607Zm26.123-16.1h6.683l-9.72,16.1H24.086ZM24.389,19.078H38.666L41.7,24.242H27.427Zm24.994-6.684a3.2,3.2,0,0,0-.813-1.206,3.385,3.385,0,0,0-1.267-.722,5.354,5.354,0,0,0-1.646-.238H42.1V21.71h2.547V17.97h1.016a5.355,5.355,0,0,0,1.646-.238,3.379,3.379,0,0,0,1.267-.722,3.186,3.186,0,0,0,.813-1.214,4.66,4.66,0,0,0,.285-1.7A4.643,4.643,0,0,0,49.384,12.394Zm-2.7,3a1.676,1.676,0,0,1-1.172.377H44.642V12.426h0.867a1.7,1.7,0,0,1,1.172.369,1.692,1.692,0,0,1,.413,1.3A1.7,1.7,0,0,1,46.681,15.4Zm7.661,2.28L56.5,21.71h2.831l-2.655-4.543a3.163,3.163,0,0,0,1.477-1.361,4.107,4.107,0,0,0,.46-1.952,4.093,4.093,0,0,0-.291-1.616,2.959,2.959,0,0,0-.82-1.123,3.524,3.524,0,0,0-1.26-.664,5.483,5.483,0,0,0-1.6-.222H50.982V21.71h2.547V17.675h0.813Zm1.307-2.706a1.563,1.563,0,0,1-1.077.344H53.529V12.377h1.043a1.563,1.563,0,0,1,1.077.344,1.451,1.451,0,0,1,.386,1.132A1.426,1.426,0,0,1,55.649,14.969Zm13.223-1.361a5.651,5.651,0,0,0-.9-1.878,4.24,4.24,0,0,0-1.477-1.247,4.743,4.743,0,0,0-4.037,0,4.238,4.238,0,0,0-1.477,1.247,5.651,5.651,0,0,0-.9,1.878,9.307,9.307,0,0,0,0,4.724,5.651,5.651,0,0,0,.9,1.878,4.234,4.234,0,0,0,1.477,1.246,4.744,4.744,0,0,0,4.037,0,4.236,4.236,0,0,0,1.477-1.246,5.651,5.651,0,0,0,.9-1.878A9.3,9.3,0,0,0,68.872,13.607Zm-2.886,5.085a1.675,1.675,0,0,1-3.021,0,5.63,5.63,0,0,1-.535-2.723,5.631,5.631,0,0,1,.535-2.723,1.675,1.675,0,0,1,3.021,0,5.634,5.634,0,0,1,.535,2.723A5.632,5.632,0,0,1,65.986,18.692Z" transform="translate(-1 -0.563)"/>
</svg>
