<svg xmlns="http://www.w3.org/2000/svg" viewBox="0 0 75 75">
  <defs>
    <style>
      .cls-1 {
        fill: #28d9cd;
      }
    </style>
  </defs>
  <title>Монтажная область 3</title>
  <g id="_3" data-name="3">
    <g>
      <path class="cls-1" d="M9.72,10A1,1,0,0,1,9,9.66a.67.67,0,0,1-.13-.15,1.49,1.49,0,0,1-.1-.18,1.85,1.85,0,0,1-.05-.19,1,1,0,0,1,0-.2,1,1,0,0,1,0-.2,1.86,1.86,0,0,1,.05-.19,1.48,1.48,0,0,1,.1-.18A.92.92,0,0,1,9,8.21a1,1,0,0,1,.92-.28L10.1,8a.89.89,0,0,1,.18.1.86.86,0,0,1,.16.12,1.4,1.4,0,0,1,.13.16.87.87,0,0,1,.09.18,1,1,0,0,1,.08.39,1,1,0,0,1,0,.2,1,1,0,0,1-.06.19.87.87,0,0,1-.09.18.91.91,0,0,1-.13.15.89.89,0,0,1-.16.13l-.18.1-.19.06Z"/>
      <path class="cls-1" d="M17,8.94a1,1,0,0,1,1-1h0a1,1,0,0,1,1,1h0a1,1,0,0,1-1,1h0A1,1,0,0,1,17,8.94Z"/>
      <path class="cls-1" d="M26.41,10l-.2,0L26,9.88a.74.74,0,0,1-.18-.1.94.94,0,0,1-.16-.12l-.13-.16a1.48,1.48,0,0,1-.09-.18,1.85,1.85,0,0,1-.05-.19,1,1,0,0,1,0-.2,1,1,0,0,1,.3-.73.68.68,0,0,1,.16-.12A.74.74,0,0,1,26,8l.19-.06a1.27,1.27,0,0,1,.39,0L26.8,8a.89.89,0,0,1,.18.1.86.86,0,0,1,.16.12,1,1,0,0,1,.3.73,1,1,0,0,1-.08.39.87.87,0,0,1-.09.18l-.13.16L27,9.79a.89.89,0,0,1-.18.1l-.19.06Z"/>
    </g>
    <path class="cls-1" d="M4.82,65.66a1,1,0,0,1-1-1v-61a1,1,0,1,1,2,0v61A1,1,0,0,1,4.82,65.66Z"/>
    <path class="cls-1" d="M54.69,26a1,1,0,0,1-1-1V13a1,1,0,0,1,2,0V25A1,1,0,0,1,54.69,26Z"/>
    <path class="cls-1" d="M54.69,62.33a1,1,0,0,1-1-1V50.41a1,1,0,0,1,2,0v10.9A1,1,0,0,1,54.69,62.33Z"/>
    <path class="cls-1" d="M13.19,72.85c-.3,0-.6,0-.9,0-4.84-.4-8.5-3.94-8.5-8.22a1,1,0,0,1,2,0c0,3.21,2.85,5.87,6.63,6.19.24,0,.48,0,.73,0,4.06,0,7.36-2.79,7.36-6.22V61.31a1,1,0,0,1,2,0v3.27C22.59,69.14,18.37,72.85,13.19,72.85Z"/>
    <path class="cls-1" d="M52.74,72.85H13.19a1,1,0,0,1,0-2c4.06,0,7.36-2.79,7.36-6.22V61.31a1,1,0,0,1,1-1H61.12a1,1,0,0,1,1,1v3.27C62.14,69.14,57.93,72.85,52.74,72.85Zm-33.38-2H52.74c4.06,0,7.36-2.79,7.36-6.22V62.33H22.59v2.25A7.86,7.86,0,0,1,19.37,70.81Z"/>
    <path class="cls-1" d="M54.69,14H4.82a1,1,0,0,1-1-1V3.67a1,1,0,0,1,1-1H54.69a1,1,0,0,1,1,1V13A1,1,0,0,1,54.69,14Zm-48.85-2H53.67V4.69H5.84Z"/>
    <g>
      <path class="cls-1" d="M68.6,51.35l-.37,0L50.12,49.92a1,1,0,0,1-.94-1V43.2a1,1,0,0,1,.94-1l18.13-1.41a4,4,0,0,1,3.09,1.07,6,6,0,0,1,0,8.43A4,4,0,0,1,68.6,51.35ZM51.22,48l17.19,1.34A2,2,0,0,0,70,48.75a4,4,0,0,0,0-5.41,2,2,0,0,0-1.54-.54l-17.2,1.34Z"/>
      <path class="cls-1" d="M33.27,49.5H26.74a1,1,0,0,1-1-1V43.62a1,1,0,0,1,1-1h6.53a1,1,0,0,1,.71.29l2.48,2.43a1,1,0,0,1,0,1.46L34,49.21A1,1,0,0,1,33.27,49.5Zm-5.51-2h5.09L34.29,46l-1.44-1.41H27.76Z"/>
      <path class="cls-1" d="M50.2,47.07H35.75a1,1,0,0,1,0-2H50.2a1,1,0,0,1,0,2Z"/>
    </g>
    <g>
      <path class="cls-1" d="M20.91,38.58a1,1,0,0,1-.52-.14l-7.14-4.18a1,1,0,0,1,1-1.76l6.62,3.88L27,32.79V32a1,1,0,0,1,2,0v1.37a1,1,0,0,1-.5.88l-7.14,4.18A1,1,0,0,1,20.91,38.58Z"/>
      <path class="cls-1" d="M28.05,27.41a1,1,0,0,1-1-1V25.6L20.91,22,14.29,25.9a1,1,0,0,1-1-1.76L20.4,20a1,1,0,0,1,1,0l7.14,4.18a1,1,0,0,1,.5.88v1.37A1,1,0,0,1,28.05,27.41Z"/>
      <path class="cls-1" d="M20.91,34.9a1,1,0,0,1-.52-.14l-4-2.34a1,1,0,0,1,1-1.76l3.48,2,3-1.75V27.44l-3-1.75-3.48,2a1,1,0,0,1-1-1.76l4-2.34a1,1,0,0,1,1,0l4,2.34a1,1,0,0,1,.5.88v4.69a1,1,0,0,1-.5.88l-4,2.34A1,1,0,0,1,20.91,34.9Z"/>
      <path class="cls-1" d="M13.78,34.4a1,1,0,0,1-.52-1.9l3.14-1.84a1,1,0,0,1,1,1.76l-3.14,1.84A1,1,0,0,1,13.78,34.4Z"/>
      <path class="cls-1" d="M16.92,27.88a1,1,0,0,1-.51-.14L13.26,25.9a1,1,0,0,1,1-1.76L17.43,26a1,1,0,0,1-.52,1.9Z"/>
      <path class="cls-1" d="M65.64,38.58a1,1,0,0,1-.52-.14L58,34.26a1,1,0,0,1-.5-.88V32a1,1,0,0,1,2,0v.79l6.11,3.58,6.62-3.88a1,1,0,0,1,1,1.76l-7.14,4.18A1,1,0,0,1,65.64,38.58Z"/>
      <path class="cls-1" d="M58.5,27.41a1,1,0,0,1-1-1V25a1,1,0,0,1,.5-.88L65.12,20a1,1,0,0,1,1,0l7.14,4.18a1,1,0,0,1-1,1.76L65.64,22,59.52,25.6v.79A1,1,0,0,1,58.5,27.41Z"/>
      <path class="cls-1" d="M65.64,34.9a1,1,0,0,1-.52-.14l-4-2.34a1,1,0,0,1-.5-.88V26.86a1,1,0,0,1,.5-.88l4-2.34a1,1,0,0,1,1,0l4,2.34a1,1,0,0,1-1,1.76l-3.48-2-3,1.75V31l3,1.75,3.48-2a1,1,0,0,1,1,1.76l-4,2.34A1,1,0,0,1,65.64,34.9Z"/>
      <path class="cls-1" d="M72.77,34.4a1,1,0,0,1-.51-.14l-3.14-1.84a1,1,0,0,1,1-1.76l3.14,1.84a1,1,0,0,1-.52,1.9Z"/>
      <path class="cls-1" d="M69.64,27.88a1,1,0,0,1-.52-1.9l3.14-1.84a1,1,0,0,1,1,1.76l-3.14,1.84A1,1,0,0,1,69.64,27.88Z"/>
      <path class="cls-1" d="M58.5,33H28.05a1,1,0,1,1,0-2H58.5a1,1,0,1,1,0,2Z"/>
      <path class="cls-1" d="M58.5,27.41H28.05a1,1,0,0,1,0-2H58.5a1,1,0,0,1,0,2Z"/>
    </g>
    <path class="cls-1" d="M54.69,43.87a1,1,0,0,1-1-1V32a1,1,0,0,1,2,0V42.85A1,1,0,0,1,54.69,43.87Z"/>
  </g>
</svg>
