<?xml version="1.0" encoding="utf-8"?>
<!-- Generator: Adobe Illustrator 17.1.0, SVG Export Plug-In . SVG Version: 6.00 Build 0)  -->
<!DOCTYPE svg PUBLIC "-//W3C//DTD SVG 1.1//EN" "http://www.w3.org/Graphics/SVG/1.1/DTD/svg11.dtd">
<svg version="1.1" id="Layer_1" xmlns="http://www.w3.org/2000/svg" xmlns:xlink="http://www.w3.org/1999/xlink" x="0px" y="0px"
	 viewBox="0 0 2000 2000" enable-background="new 0 0 2000 2000" xml:space="preserve">
<path fill="#666666" d="M1024.8,1997.1H704.5c-53.5,0-97-43.5-97-97v-722.4H420.6c-53.5,0-97-43.5-97-97V771.1c0-53.5,43.5-97,97-97
	h186.9v-155c0-153.7,48.3-284.5,139.6-378.1C838.7,46.8,966.9-2.9,1117.6-2.9l244.3,0.4c53.4,0.1,96.8,43.6,96.8,97v287.4
	c0,53.5-43.5,97-97,97l-164.5,0.1c-50.2,0-62.9,10.1-65.7,13.1c-4.5,5.1-9.9,19.6-9.9,59.5v122.5h227.6c17.1,0,33.7,4.2,48,12.2
	c30.8,17.2,49.9,49.7,49.9,84.9l-0.1,309.6c0,53.5-43.5,97-97,97h-228.4v722.4C1121.8,1953.6,1078.3,1997.1,1024.8,1997.1z
	 M724.7,1879.8h279.8v-754.7c0-35.7,29.1-64.8,64.8-64.8H1330l0.1-269.1h-260.8c-35.7,0-64.8-29.1-64.8-64.8v-175
	c0-45.8,4.7-97.9,39.2-137.1c41.8-47.3,107.6-52.8,153.5-52.8l144.2-0.1v-247l-224-0.4c-242.3,0-392.8,155.1-392.8,404.7v207.5
	c0,35.7-29.1,64.8-64.8,64.8H440.8v269.1H660c35.7,0,64.8,29.1,64.8,64.8V1879.8z M1361.7,114.7L1361.7,114.7L1361.7,114.7z"/>
</svg>
