<?xml version="1.0" encoding="utf-8"?>
<!-- Generator: Adobe Illustrator 17.1.0, SVG Export Plug-In . SVG Version: 6.00 Build 0)  -->
<!DOCTYPE svg PUBLIC "-//W3C//DTD SVG 1.1//EN" "http://www.w3.org/Graphics/SVG/1.1/DTD/svg11.dtd">
<svg version="1.1" id="Layer_1" xmlns="http://www.w3.org/2000/svg" xmlns:xlink="http://www.w3.org/1999/xlink" x="0px" y="0px"
	 viewBox="0 0 2000 2000" enable-background="new 0 0 2000 2000" xml:space="preserve">
<path fill="#666666" d="M1458.6,0H541.4C242.9,0,0,242.9,0,541.4v917.2C0,1757.1,242.9,2000,541.4,2000h917.2
	c298.5,0,541.4-242.9,541.4-541.4V541.4C2000,242.9,1757.1,0,1458.6,0z M1882.7,1458.6c0,233.9-190.3,424.1-424.1,424.1H541.4
	c-233.9,0-424.1-190.3-424.1-424.1V541.4c0-233.9,190.3-424.1,424.1-424.1h917.2c233.9,0,424.1,190.3,424.1,424.1V1458.6z"/>
<path fill="#666666" d="M1000,453.1c-301.5,0-546.9,245.3-546.9,546.9s245.3,546.9,546.9,546.9s546.9-245.3,546.9-546.9
	S1301.5,453.1,1000,453.1z M1000,1429.6c-236.9,0-429.6-192.7-429.6-429.6c0-236.9,192.7-429.6,429.6-429.6
	c236.9,0,429.6,192.7,429.6,429.6C1429.6,1236.9,1236.9,1429.6,1000,1429.6z"/>
<path fill="#666666" d="M1559.9,258.9c-89.1,0-161.6,72.5-161.6,161.6c0,89.1,72.5,161.6,161.6,161.6c89.1,0,161.6-72.5,161.6-161.6
	S1649,258.9,1559.9,258.9z M1559.9,464.9c-24.4,0-44.3-19.9-44.3-44.3c0-24.5,19.9-44.3,44.3-44.3c24.5,0,44.4,19.9,44.4,44.3
	C1604.3,445,1584.4,464.9,1559.9,464.9z"/>
</svg>
