<?xml version="1.0" encoding="utf-8"?>
<!-- Generator: Adobe Illustrator 17.1.0, SVG Export Plug-In . SVG Version: 6.00 Build 0)  -->
<!DOCTYPE svg PUBLIC "-//W3C//DTD SVG 1.1//EN" "http://www.w3.org/Graphics/SVG/1.1/DTD/svg11.dtd">
<svg version="1.1" id="Layer_1" xmlns="http://www.w3.org/2000/svg" xmlns:xlink="http://www.w3.org/1999/xlink" x="0px" y="0px"
	 viewBox="0 0 2000 2000" enable-background="new 0 0 2000 2000" xml:space="preserve">
<path fill="#666666" d="M761,1782c-333.8,0-597.6-58.3-723.8-160l-2.5-2l-2.2-2.2c-30-30-39.8-69.4-26.9-108l1.2-3.2
	c15.6-39.1,53.9-65.4,95.4-65.6c85.4-1.5,160.1-11.7,227.9-31.4c-108.1-50.3-183.3-137.4-228-263.4c-15-39.3-2.1-82.9,32.6-108.9
	c8.5-6.4,18.2-11.3,28.4-14.5C103,953.4,58.6,874.5,33.7,791l-0.8-2.6l-0.5-2.7c-8.4-42.2,10.4-85.6,45-104.3
	c14.5-8.3,30.3-12.6,46.1-13C106.5,631.7,94.1,594,86.7,556c-20.4-105.2-3.6-210.6,50-313.3l12.4-24.8c9.9-19.9,28.9-33.8,50.8-37.4
	c21.9-3.5,44.3,3.7,60,19.4l22.6,22.6c178.5,187.2,338.4,276,614.9,336.7c12.3-106.1,58.2-204.8,132.2-282.4
	c88.1-92.4,205.7-144.2,331.2-146h0.8c91.6,0,205.2,52.3,273.8,89.1c58.9-19.3,129.9-49.1,203.6-80.7c34.5-16.2,77-8.8,104.1,18.3
	c26.6,26.6,33.9,64,19.8,100.4c-5.4,14.9-11.4,29.5-18.2,43.9c10.1,4.6,19.3,10.9,27.1,18.7c23.6,23.6,33.4,60.5,25,94l-0.9,3.2
	c-28.2,91-82.5,165.1-154.2,211.6C1830,1267.2,1349.7,1782,761,1782z M149.6,1556.7c118.9,67.3,345.6,108,611.4,108
	c255.5,0,496.6-109.7,678.9-308.9c183.8-200.8,285-467.5,285-750.9v-3.2c0-25.7,14.1-49.1,36.9-61.1c46.1-24.4,83.5-66,107.8-119.2
	c-25.1,4-50.5-6.1-66.1-27.1c-18.1-24.4-18.3-57.3-0.5-81.9c9.6-13.3,18.4-27.1,26.1-41.4c-63.6,26.7-124,50.7-176.5,66.6
	c-19.1,5.8-40.3,3.5-57.7-6.2c-93.4-52-180.3-83.1-232.8-83.3c-193.5,3-350.8,168.7-350.8,369.6c0,20.8-9.2,40.2-25.3,53.4
	c-16.1,13.2-36.9,18.5-57.3,14.4c-318.8-62.8-507.7-157-704.1-354.4c-28.2,67.5-35.8,135.4-22.8,202.5
	c13.2,68,48.3,136.1,101.5,196.9c20.2,23.1,22.9,56.2,6.7,82.2c-16.2,26-46.9,38.1-76.5,30.2c-23.1-6.2-44.3-14.3-64.5-24.8
	c41,89.1,111.6,171.6,200.3,232.3c25.7,17.6,36.5,50.5,26.1,79.9c-10.3,29.5-39.2,48.4-70.4,46.1c-34-2.5-64.1-9-91.8-19.9
	c49.7,101.3,129.2,157,251.7,178.3c29.2,5.1,51.9,28.1,56.5,57.3c4.7,29.2-9.8,58.1-35.9,72C401.3,1519.7,287.2,1549.4,149.6,1556.7
	z"/>
</svg>
