<svg xmlns="http://www.w3.org/2000/svg" viewBox="0 0 75 75">
  <defs>
    <style>
      .cls-1 {
        fill: #28d9cd;
      }
    </style>
  </defs>
  <title>Монтажная область 11</title>
  <g id="_11" data-name="11">
    <path class="cls-1" d="M66,39.39a1,1,0,0,1-1-1V25.52a1,1,0,1,1,2.07,0V38.36A1,1,0,0,1,66,39.39Z"/>
    <path class="cls-1" d="M70,51.8H61.89a1,1,0,0,1-1-1.19l1.88-11.88A1,1,0,0,1,63.3,38a5.89,5.89,0,0,1,5.33,0,1,1,0,0,1,.55.76L71.06,50.6a1,1,0,0,1-1,1.19ZM63.1,49.73h5.73l-1.6-10.12a3.83,3.83,0,0,0-2.52,0Z"/>
    <path class="cls-1" d="M37.7,51.14a43.65,43.65,0,0,1-19.32-4.38,1,1,0,0,1-.57-.93V24.25a1,1,0,0,1,.61-.94,47.23,47.23,0,0,1,38.58,0,1,1,0,0,1,.61.94V45.83a1,1,0,0,1-.57.93A43.65,43.65,0,0,1,37.7,51.14Zm-17.83-6a42.79,42.79,0,0,0,35.65,0V24.92a45.19,45.19,0,0,0-35.65,0Z"/>
    <path class="cls-1" d="M56.56,31.66a1,1,0,0,1-1-1v-5.7a45.19,45.19,0,0,0-35.65,0v5.39a1,1,0,0,1-1.53.91L3.53,23.09a1,1,0,0,1,0-1.81l34-18.63a1,1,0,0,1,1,0l34,18.63a1,1,0,0,1,0,1.81L57.06,31.53A1,1,0,0,1,56.56,31.66ZM37.7,19.19A46.72,46.72,0,0,1,57,23.31a1,1,0,0,1,.61.94v4.63l12.21-6.7L38,4.73,6.17,22.19l11.64,6.38V24.25a1,1,0,0,1,.61-.94A46.73,46.73,0,0,1,37.7,19.19Z"/>
    <path class="cls-1" d="M9.23,71.61a1,1,0,0,1-.78-.35c-5-5.68-5-11.44,0-17.13a1.06,1.06,0,0,1,.85-.35c9,.59,18.25.91,27.43.93a1,1,0,0,1,1,1V69.64a1,1,0,0,1-1,1c-9.18,0-18.41.34-27.43.93Zm.45-15.73c-3.79,4.58-3.79,9.05,0,13.64,8.56-.55,17.3-.86,26-.9V56.78C27,56.74,18.24,56.43,9.68,55.88Z"/>
    <path class="cls-1" d="M66.58,71.61h-.07c-7.8-.51-15.86-.82-24-.91a1,1,0,0,1-1-1v-14a1,1,0,0,1,1-1c8.12-.09,16.18-.39,24-.91a1.05,1.05,0,0,1,.85.35c5,5.68,5,11.44,0,17.13A1,1,0,0,1,66.58,71.61Zm-23-3c7.62.1,15.19.39,22.54.86,3.79-4.58,3.79-9.05,0-13.64-7.33.47-14.91.76-22.54.86Z"/>
    <path class="cls-1" d="M42.56,72.88H36.72a1,1,0,0,1-1-1V53.55a1,1,0,0,1,1-1h5.84a1,1,0,0,1,1,1v18.3A1,1,0,0,1,42.56,72.88Zm-4.8-2.07h3.77V54.58H37.75Z"/>
  </g>
</svg>
