<svg xmlns="http://www.w3.org/2000/svg" viewBox="0 0 75 75">
  <defs>
    <style>
      .cls-1 {
        fill: #28d9cd;
      }
    </style>
  </defs>
  <title>Монтажная область 6</title>
  <g id="_6" data-name="6">
    <path class="cls-1" d="M38.57,46.37H36.41a4.06,4.06,0,0,1-4.05-4.05,1,1,0,1,1,2,0,2,2,0,0,0,2,2h2.16a2,2,0,0,0,2-2V40.16a2.05,2.05,0,0,0-2-2H36.41a4.06,4.06,0,0,1-4.05-4.05V31.89a4.06,4.06,0,0,1,4.05-4.05h2.16a4.06,4.06,0,0,1,4.05,4.05V32a1,1,0,1,1-2,0v-.1a2.05,2.05,0,0,0-2-2H36.41a2.05,2.05,0,0,0-2,2v2.16a2,2,0,0,0,2,2h2.16a4.06,4.06,0,0,1,4.05,4.05v2.16A4.06,4.06,0,0,1,38.57,46.37Z"/>
    <path class="cls-1" d="M37.49,29.51a1,1,0,0,1-1-1V25.25a1,1,0,1,1,2,0v3.26A1,1,0,0,1,37.49,29.51Z"/>
    <path class="cls-1" d="M37.49,49.63a1,1,0,0,1-1-1V45.37a1,1,0,1,1,2,0v3.26A1,1,0,0,1,37.49,49.63Z"/>
    <path class="cls-1" d="M37.46,53.83A16.85,16.85,0,1,1,50.14,48,1,1,0,0,1,49,48.3l-2.71-1.1,1,2.48a1,1,0,0,1-.36,1.2A16.66,16.66,0,0,1,37.46,53.83Zm0-31.59A14.7,14.7,0,0,0,22.87,34.72a14.69,14.69,0,0,0,14.59,17.1,14.64,14.64,0,0,0,7.67-2.16l-1.59-3.92a1,1,0,0,1,1.31-1.31l4.23,1.72A14.77,14.77,0,0,0,37.46,22.24Z"/>
    <path class="cls-1" d="M65.28,71a1,1,0,0,1-.71-.29l-9-9-2.86,2.86a1,1,0,0,1-1.64-.33L43.54,45.75a1,1,0,0,1,1.31-1.31L63.38,52a1,1,0,0,1,.33,1.64l-2.86,2.86,9,9a1,1,0,0,1,0,1.42L66,70.74A1,1,0,0,1,65.28,71Zm-9.7-11.71a1,1,0,0,1,.71.29l9,9,2.43-2.43-9-9a1,1,0,0,1,0-1.42l2.5-2.5L46.29,47.19l6.08,14.93,2.5-2.5A1,1,0,0,1,55.58,59.33Z"/>
    <path class="cls-1" d="M37.46,18a1,1,0,0,1-1-1V8.71a1,1,0,1,1,2,0V17A1,1,0,0,1,37.46,18Z"/>
    <path class="cls-1" d="M37.49,66.35a1,1,0,0,1-1-1V57a1,1,0,1,1,2,0v8.3A1,1,0,0,1,37.49,66.35Z"/>
    <path class="cls-1" d="M23.31,23.88a1,1,0,0,1-.71-.29l-5.87-5.87a1,1,0,0,1,1.42-1.42L24,22.17a1,1,0,0,1-.71,1.71Z"/>
    <path class="cls-1" d="M17.45,38H9.16a1,1,0,0,1,0-2h8.3a1,1,0,0,1,0,2Z"/>
    <path class="cls-1" d="M65.79,38h-8.3a1,1,0,0,1,0-2h8.3a1,1,0,0,1,0,2Z"/>
    <path class="cls-1" d="M17.46,58.06a1,1,0,0,1-.71-1.71l5.87-5.87A1,1,0,0,1,24,51.9l-5.87,5.87A1,1,0,0,1,17.46,58.06Z"/>
    <path class="cls-1" d="M51.62,23.87a1,1,0,0,1-.71-1.71l5.87-5.87a1,1,0,0,1,1.42,1.42l-5.87,5.87A1,1,0,0,1,51.62,23.87Z"/>
    <path class="cls-1" d="M37.49,9.63a3.77,3.77,0,1,1,3.77-3.77A3.77,3.77,0,0,1,37.49,9.63Zm0-5.53a1.76,1.76,0,1,0,1.76,1.76A1.76,1.76,0,0,0,37.49,4.1Z"/>
    <path class="cls-1" d="M37.46,72.09a3.77,3.77,0,1,1,3.77-3.77A3.77,3.77,0,0,1,37.46,72.09Zm0-5.53a1.76,1.76,0,1,0,1.76,1.76A1.76,1.76,0,0,0,37.46,66.56Z"/>
    <path class="cls-1" d="M15.4,18.76a3.77,3.77,0,1,1,2.67-1.1A3.76,3.76,0,0,1,15.4,18.76Zm0-5.53a1.76,1.76,0,1,0,1.25.52A1.76,1.76,0,0,0,15.4,13.23Z"/>
    <path class="cls-1" d="M6.24,40.84A3.77,3.77,0,1,1,10,37.07,3.77,3.77,0,0,1,6.24,40.84Zm0-5.53A1.76,1.76,0,1,0,8,37.07,1.77,1.77,0,0,0,6.24,35.31Z"/>
    <path class="cls-1" d="M68.7,40.88a3.77,3.77,0,1,1,3.77-3.77A3.77,3.77,0,0,1,68.7,40.88Zm0-5.53a1.76,1.76,0,1,0,1.76,1.76A1.77,1.77,0,0,0,68.7,35.34Z"/>
    <path class="cls-1" d="M15.38,62.93a3.77,3.77,0,0,1-2.67-6.44h0a3.77,3.77,0,1,1,2.67,6.44Zm0-5.53a1.76,1.76,0,0,0-1.25.52h0a1.77,1.77,0,1,0,1.25-.52Zm-2-.19h0Z"/>
    <path class="cls-1" d="M59.57,18.79a3.77,3.77,0,0,1-2.67-6.44h0a3.77,3.77,0,1,1,2.67,6.44Zm0-5.53a1.75,1.75,0,0,0-1.25.52h0a1.76,1.76,0,0,0,0,2.49,1.81,1.81,0,0,0,2.49,0,1.76,1.76,0,0,0-1.25-3Zm-2-.19h0Z"/>
  </g>
</svg>
