<svg xmlns="http://www.w3.org/2000/svg" viewBox="0 0 75 75">
  <defs>
    <style>
      .cls-1 {
        fill: #28d9cd;
      }
    </style>
  </defs>
  <title>Монтажная область 5</title>
  <g id="_5" data-name="5">
    <path class="cls-1" d="M28,28.08a1,1,0,0,1-.73-.3L24.48,25a1,1,0,1,1,1.47-1.47l2.74,2.74A1,1,0,0,1,28,28.08Z"/>
    <path class="cls-1" d="M57.3,57.43a1,1,0,0,1-.73-.3l-2.74-2.74a1,1,0,0,1,1.47-1.47L58,55.66a1,1,0,0,1-.73,1.77Z"/>
    <path class="cls-1" d="M54.56,28.08a1,1,0,0,1-.73-1.77l2.74-2.74A1,1,0,1,1,58,25l-2.74,2.74A1,1,0,0,1,54.56,28.08Z"/>
    <path class="cls-1" d="M25.21,57.43a1,1,0,0,1-.73-1.77l2.74-2.74a1,1,0,1,1,1.47,1.47l-2.74,2.74A1,1,0,0,1,25.21,57.43Z"/>
    <path class="cls-1" d="M41.26,22.57a1,1,0,0,1-1-1V17.66a1,1,0,0,1,2.07,0v3.88A1,1,0,0,1,41.26,22.57Z"/>
    <path class="cls-1" d="M41.26,64.07a1,1,0,0,1-1-1V59.16a1,1,0,0,1,2.07,0V63A1,1,0,0,1,41.26,64.07Z"/>
    <path class="cls-1" d="M22.44,41.38H18.57a1,1,0,1,1,0-2.07h3.88a1,1,0,1,1,0,2.07Z"/>
    <path class="cls-1" d="M63.95,41.38H60.07a1,1,0,1,1,0-2.07h3.88a1,1,0,1,1,0,2.07Z"/>
    <path class="cls-1" d="M7.84,19.78A2.73,2.73,0,0,1,5.91,19L3.55,16.62a2.74,2.74,0,0,1,0-3.87L13.78,2.52a2.74,2.74,0,0,1,3.87,0L20,4.88a2.74,2.74,0,0,1,0,3.87L9.78,19A2.73,2.73,0,0,1,7.84,19.78Zm7.87-16a.66.66,0,0,0-.47.19L5,14.22a.66.66,0,0,0,0,.93l2.36,2.36a.66.66,0,0,0,.93,0L18.54,7.28a.66.66,0,0,0,0-.93L16.18,4A.66.66,0,0,0,15.71,3.8Z"/>
    <path class="cls-1" d="M17.57,21.35a1,1,0,0,1-.73-.3l-5.29-5.29a1,1,0,0,1,0-1.47l3.65-3.65a1,1,0,0,1,1.47,0L22,15.95a1,1,0,0,1-.07,1.53c-.74.61-1.39,1.21-2,1.82s-1,1-1.55,1.69a1,1,0,0,1-.75.36ZM13.74,15l3.78,3.78c.31-.35.61-.66.92-1s.83-.81,1.28-1.21l-3.79-3.79Z"/>
    <path class="cls-1" d="M40.94,72.15A31.8,31.8,0,0,1,16.78,19.63c.6-.7,1.13-1.27,1.66-1.8s1.35-1.29,2.14-1.95h0A31.82,31.82,0,1,1,40.94,72.15Zm-19-54.67c-.74.62-1.39,1.21-2,1.82s-1,1-1.55,1.69a29.73,29.73,0,1,0,3.55-3.51Zm19,49.09h0A26.21,26.21,0,1,1,59.5,58.89,26.07,26.07,0,0,1,40.94,66.57Zm0-50.39A24.13,24.13,0,1,0,58,23.24,24.1,24.1,0,0,0,40.94,16.18Z"/>
    <path class="cls-1" d="M41.16,44.78a4.61,4.61,0,1,1,3.26-1.35A4.58,4.58,0,0,1,41.16,44.78Zm0-7.14a2.53,2.53,0,1,0,1.79.74A2.53,2.53,0,0,0,41.16,37.64Z"/>
    <path class="cls-1" d="M40.83,41H28a1,1,0,1,1,0-2.07H40.83a1,1,0,1,1,0,2.07Z"/>
  </g>
</svg>
