<svg xmlns="http://www.w3.org/2000/svg" viewBox="0 0 75 75">
  <defs>
    <style>
      .cls-1 {
        fill: #28d9cd;
      }
    </style>
  </defs>
  <title>Монтажная область 9</title>
  <g id="_9" data-name="9">
    <path class="cls-1" d="M16.43,54.29a1,1,0,0,1-1-1V27.41a1,1,0,0,1,.67-1l21.69-8a1,1,0,0,1,1.37,1V45.31a1,1,0,0,1-.67,1l-21.69,8A1,1,0,0,1,16.43,54.29Zm1-26.17V51.81L37.1,44.6V20.91ZM38.12,45.31h0Z"/>
    <path class="cls-1" d="M59.81,54.29a1,1,0,0,1-.35-.06l-21.69-8a1,1,0,0,1-.67-1V19.45a1,1,0,0,1,1.37-1l21.69,8a1,1,0,0,1,.67,1V53.27a1,1,0,0,1-1,1ZM39.14,44.6l19.65,7.21V28.12L39.14,20.91Z"/>
    <g>
      <path class="cls-1" d="M24.3,39.17a1,1,0,0,1-.35-2l14-5.12a1,1,0,1,1,.7,1.91l-14,5.12A1,1,0,0,1,24.3,39.17Z"/>
      <polygon class="cls-1" points="29.3 40 24.87 37.95 26.92 33.51 24.17 34.52 22.12 38.95 26.55 41.01 29.3 40"/>
    </g>
    <g>
      <path class="cls-1" d="M52.25,39.17a1,1,0,0,1-.35-.06L37.93,34a1,1,0,1,1,.7-1.91l14,5.12a1,1,0,0,1-.35,2Z"/>
      <polygon class="cls-1" points="49.63 33.51 51.69 37.95 47.25 40 50 41.01 54.44 38.95 52.38 34.52 49.63 33.51"/>
    </g>
    <path class="cls-1" d="M4.14,58.64a1,1,0,0,1-1-1V17.1a1,1,0,0,1,.67-1l34-12.46a1,1,0,0,1,1.37,1V45.16a1,1,0,0,1-.67,1l-34,12.46A1,1,0,0,1,4.14,58.64Zm1-40.83V56.16L37.1,44.45V6.1Zm33,27.35h0Z"/>
    <path class="cls-1" d="M72.1,58.64a1,1,0,0,1-.35-.06l-34-12.46a1,1,0,0,1-.67-1V4.64a1,1,0,0,1,1.37-1l34,12.46a1,1,0,0,1,.67,1V57.62a1,1,0,0,1-1,1Zm-33-14.19L71.08,56.16V17.81L39.14,6.1Z"/>
    <path class="cls-1" d="M38.12,72.11a1,1,0,0,1-.35-.06l-34-12.46a1,1,0,1,1,.7-1.91L38.12,70,71.75,57.67a1,1,0,1,1,.7,1.91L38.47,72A1,1,0,0,1,38.12,72.11Z"/>
  </g>
</svg>
