<svg xmlns="http://www.w3.org/2000/svg" viewBox="0 0 75 75">
  <defs>
    <style>
      .cls-1 {
        fill: #28d9cd;
      }
    </style>
  </defs>
  <title>Монтажная область 4</title>
  <g id="_4" data-name="4">
    <path class="cls-1" d="M69.06,53.77H6.15A3.55,3.55,0,0,1,2.6,50.22V7.33A3.55,3.55,0,0,1,6.15,3.79H69.06A3.55,3.55,0,0,1,72.6,7.33V50.22A3.55,3.55,0,0,1,69.06,53.77ZM6.15,5.79A1.54,1.54,0,0,0,4.61,7.33V50.22a1.54,1.54,0,0,0,1.54,1.54H69.06a1.54,1.54,0,0,0,1.54-1.54V7.33a1.54,1.54,0,0,0-1.54-1.54ZM66.52,48.69H8.69a1,1,0,0,1-1-1V9.87a1,1,0,0,1,1-1H66.52a1,1,0,0,1,1,1V47.68A1,1,0,0,1,66.52,48.69Zm-56.83-2H65.52V10.87H9.69Z"/>
    <path class="cls-1" d="M42.4,65.08H32.48a1,1,0,0,1-1-1V52.83a1,1,0,0,1,1-1H42.4a1,1,0,0,1,1,1V64.08A1,1,0,0,1,42.4,65.08Zm-8.91-2H41.4V53.84H33.49Z"/>
    <path class="cls-1" d="M57.84,71.89H17.19a1,1,0,0,1-.86-1.52l4-6.81a1,1,0,0,1,.86-.49H53.82a1,1,0,0,1,.86.49l4,6.81a1,1,0,0,1-.86,1.52ZM19,69.88H56.08l-2.84-4.8H21.79Z"/>
    <path class="cls-1" d="M37.62,35.45a6.12,6.12,0,0,1-6.11-6.11,1,1,0,1,1,2,0,4.1,4.1,0,1,0,4.1-4.1,1,1,0,0,1,0-2,6.11,6.11,0,0,1,0,12.22Z"/>
    <path class="cls-1" d="M37.62,43.58a14.5,14.5,0,0,1-2.47-.21,1,1,0,0,1-.82-1.16l.36-2.1a11.14,11.14,0,0,1-1.8-.65L31.84,41.3a1,1,0,0,1-1.37.37,14.34,14.34,0,0,1-3.81-3.19,1,1,0,0,1,.12-1.42l1.63-1.37a11.23,11.23,0,0,1-1-1.65l-2,.73a1,1,0,0,1-1.29-.6,14.27,14.27,0,0,1-.87-4.9,1,1,0,0,1,1-1h2.12q0-.5.13-1c.05-.3.12-.6.2-.89l-2-.72a1,1,0,0,1-.6-1.29,14.27,14.27,0,0,1,2.48-4.31A1,1,0,0,1,28,19.93l1.63,1.36a11.24,11.24,0,0,1,1.46-1.23l-1.07-1.84a1,1,0,0,1,.36-1.37,14.22,14.22,0,0,1,4.68-1.72,1,1,0,0,1,1.16.81L36.63,18a10.14,10.14,0,0,1,1.91,0l.36-2.09a1,1,0,0,1,1.16-.82,14.24,14.24,0,0,1,4.69,1.69,1,1,0,0,1,.37,1.37L44.06,20a11.24,11.24,0,0,1,1.47,1.22l1.62-1.37a1,1,0,0,1,1.42.12,14.28,14.28,0,0,1,2.51,4.3,1,1,0,0,1-.6,1.29l-2,.74c.09.32.16.64.22,1s.1.63.13.94l2.11,0a1.06,1.06,0,0,1,.72.29,1,1,0,0,1,.3.71,14.35,14.35,0,0,1-.86,4.95,1,1,0,0,1-1.29.6l-2-.73a11.21,11.21,0,0,1-1,1.66L48.48,37a1,1,0,0,1,.12,1.42,14.34,14.34,0,0,1-3.81,3.2,1,1,0,0,1-1.37-.37l-1.07-1.84a11.09,11.09,0,0,1-1.79.66l.37,2.1a1,1,0,0,1-.82,1.16A14.47,14.47,0,0,1,37.62,43.58Zm-1.13-2.06a12.53,12.53,0,0,0,2.28,0l-.35-2a1,1,0,0,1,.81-1.16,9.15,9.15,0,0,0,3-1.1,1,1,0,0,1,1.37.37l1,1.77a12.32,12.32,0,0,0,1.75-1.47L44.82,36.6a1,1,0,0,1-.12-1.42,9.23,9.23,0,0,0,1.6-2.78,1,1,0,0,1,1.29-.6l1.92.7a12.34,12.34,0,0,0,.4-2.29l-2,0a1,1,0,0,1-.72-.29,1,1,0,0,1-.3-.71,9.07,9.07,0,0,0-.15-1.6,9.47,9.47,0,0,0-.43-1.58,1,1,0,0,1,.6-1.29l1.92-.71a12.26,12.26,0,0,0-1.15-2L46.09,23.4a1,1,0,0,1-1.41-.12,9.29,9.29,0,0,0-2.47-2.05,1,1,0,0,1-.37-1.37l1-1.77a12.2,12.2,0,0,0-2.15-.78l-.35,2a1,1,0,0,1-1.16.82,8.6,8.6,0,0,0-3.21,0,1,1,0,0,1-1.17-.81l-.36-2a12.16,12.16,0,0,0-2.15.79l1,1.77A1,1,0,0,1,33,21.26a9.3,9.3,0,0,0-2.46,2.07,1,1,0,0,1-1.41.13l-1.57-1.31a12.29,12.29,0,0,0-1.14,2l1.92.7a1,1,0,0,1,.6,1.29,9.54,9.54,0,0,0-.42,1.53,9,9,0,0,0-.15,1.61,1,1,0,0,1-1,1h-2a12.22,12.22,0,0,0,.4,2.25l1.92-.7a1,1,0,0,1,1.29.6,9.23,9.23,0,0,0,1.6,2.78,1,1,0,0,1-.12,1.42l-1.56,1.32a12.31,12.31,0,0,0,1.75,1.47l1-1.77A1,1,0,0,1,33,37.25a9.16,9.16,0,0,0,3,1.09,1,1,0,0,1,.82,1.16Z"/>
    <path class="cls-1" d="M36.61,29.34a1,1,0,0,1,1-1h0a1,1,0,0,1,1,1h0a1,1,0,0,1-1,1h0A1,1,0,0,1,36.61,29.34Z"/>
  </g>
</svg>
