<svg xmlns="http://www.w3.org/2000/svg" viewBox="0 0 75 75">
  <defs>
    <style>
      .cls-1 {
        fill: #28d9cd;
      }
    </style>
  </defs>
  <title>Монтажная область 14</title>
  <g id="_13" data-name="13">
    <path class="cls-1" d="M53.39,72.9H31.76A2.68,2.68,0,0,1,29,70.36V61.63H22c-2.58,0-4.2-.49-5.26-1.59s-1.6-3.08-1.47-6.3a48.06,48.06,0,0,0-.06-6c0-.42-.05-.89-.08-1.43l-3.07-.06a3.34,3.34,0,0,1-3-5l5.18-9.75a6.68,6.68,0,0,0,.76-3.74C15,27.2,15,26.64,15,26.17c-.12-6.72,1.92-12.42,5.92-16.49C25.2,5.3,31.66,2.9,39.12,2.9,58.86,2.9,65.9,15.46,65.9,27.21a24.12,24.12,0,0,1-4.24,13.7,31.69,31.69,0,0,0-5.49,18v8.24a1.39,1.39,0,0,1,0,.2v3A2.68,2.68,0,0,1,53.39,72.9Zm-14.28-68c-6.91,0-12.87,2.19-16.78,6.18-3.66,3.73-5.46,8.79-5.35,15,0,.44,0,1,.07,1.46a8.68,8.68,0,0,1-1,4.86L10.9,42.2a1.43,1.43,0,0,0,0,1.39,1.44,1.44,0,0,0,1.28.65l4,.07a1,1,0,0,1,1,1c0,1,.09,1.7.13,2.35a49.68,49.68,0,0,1,.06,6.2c-.1,2.58.18,4.07.91,4.83s1.82,1,3.81,1H30a1,1,0,0,1,1,1v9.73c0,.25.32.53.78.53H53.39c.46,0,.78-.28.78-.53v-3s0-.06,0-.09V58.93A33.69,33.69,0,0,1,60,39.78a22.12,22.12,0,0,0,3.89-12.56C63.89,13.45,54.39,4.91,39.12,4.91Z"/>
    <path class="cls-1" d="M50.41,44.11H28.85a5.45,5.45,0,0,1-5.45-5.45V17.1a5.45,5.45,0,0,1,5.45-5.45H50.41a5.45,5.45,0,0,1,5.45,5.45V38.66A5.45,5.45,0,0,1,50.41,44.11ZM28.85,13.66a3.44,3.44,0,0,0-3.44,3.44V38.66a3.44,3.44,0,0,0,3.44,3.44H50.41a3.44,3.44,0,0,0,3.44-3.44V17.1a3.44,3.44,0,0,0-3.44-3.44Z"/>
    <path class="cls-1" d="M38.71,35a1,1,0,0,1-1-1v-4a2.83,2.83,0,0,1,2.83-2.83,3.33,3.33,0,0,0,3.33-3.33V23a3.33,3.33,0,0,0-3.33-3.33h-1.8A3.33,3.33,0,0,0,35.4,23a1,1,0,0,1-2,0,5.35,5.35,0,0,1,5.34-5.34h1.8A5.35,5.35,0,0,1,45.87,23v.8a5.35,5.35,0,0,1-5.34,5.34.82.82,0,0,0-.82.82v4A1,1,0,0,1,38.71,35Z"/>
    <path class="cls-1" d="M37.83,37.07a1,1,0,0,1,1-1h0a1,1,0,0,1,1,1h0a1,1,0,0,1-1,1h0A1,1,0,0,1,37.83,37.07Z"/>
  </g>
</svg>
