<svg xmlns="http://www.w3.org/2000/svg" viewBox="0 0 75 75">
  <defs>
    <style>
      .cls-1 {
        fill: #28d9cd;
      }
    </style>
  </defs>
  <title>Монтажная область 13</title>
  <g id="_13" data-name="13">
    <path class="cls-1" d="M37.64,50a12,12,0,1,1,8.51-3.52A12,12,0,0,1,37.64,50Zm0-22a10,10,0,1,0,7.07,2.93A9.93,9.93,0,0,0,37.64,28Z"/>
    <path class="cls-1" d="M38.79,65a1,1,0,0,1-.26,0L22.76,60.71A1,1,0,0,1,22,59.49a5.22,5.22,0,0,0-6.35-6.35,1,1,0,0,1-1.23-.72l-4.2-15.67A1,1,0,0,1,11,35.5a5.23,5.23,0,0,0,2.29-8.74l-.08-.07a1,1,0,0,1,0-1.45L24.79,13.61a1,1,0,0,1,.73-.3,1,1,0,0,1,.72.31l.07.08a5.22,5.22,0,0,0,8.77-2.45,1,1,0,0,1,1.25-.74l15.78,4.23a1,1,0,0,1,.69,1.34A5.25,5.25,0,0,0,54,21.62h0a5.22,5.22,0,0,0,5.28,1.28,1,1,0,0,1,1.29.71l4.09,15.27a1,1,0,0,1-.76,1.25A5.23,5.23,0,0,0,61.33,49l.1.09a1,1,0,0,1,0,1.46L50.11,61.83a1.07,1.07,0,0,1-.73.3,1,1,0,0,1-.72-.31l-.08-.09a5.22,5.22,0,0,0-8.8,2.47,1,1,0,0,1-1,.78Zm-14.6-6,13.93,3.73a7.26,7.26,0,0,1,11.25-3l10-10a7.26,7.26,0,0,1,3.13-11.29L58.87,25.09a7.23,7.23,0,0,1-6.3-2h0a7.28,7.28,0,0,1-2-6.62L36.74,12.73a7.26,7.26,0,0,1-11.2,3L15.29,26a7.26,7.26,0,0,1-2.83,11.13L16.18,51a7.3,7.3,0,0,1,5.93,2.08A7.19,7.19,0,0,1,24.19,59Z"/>
    <path class="cls-1" d="M9.56,37.72a7.26,7.26,0,1,1,5-12.5l.11.1a7.26,7.26,0,0,1-5.13,12.4Zm0-12.48a5.21,5.21,0,1,0,3.71,1.52l-.08-.07h0A5.22,5.22,0,0,0,9.56,25.24Z"/>
    <path class="cls-1" d="M9.47,33.93a3.56,3.56,0,1,1,2.45-6.14l.06.05a3.56,3.56,0,0,1-2.51,6.09Zm0-5.09a1.53,1.53,0,1,0,.42,3,1.53,1.53,0,0,0,.67-2.56l0,0A1.53,1.53,0,0,0,9.47,28.84Z"/>
    <path class="cls-1" d="M17,61.77a3.56,3.56,0,1,1,2.45-6.14l.06.05A3.56,3.56,0,0,1,17,61.77Zm0-5.09a1.53,1.53,0,1,0,1.09.45l0,0A1.53,1.53,0,0,0,17,56.67Z"/>
    <path class="cls-1" d="M44.86,69a3.56,3.56,0,1,1,2.45-6.14l0,0a3.56,3.56,0,0,1-2.5,6.1Zm0-5.09a1.53,1.53,0,1,0,1.09.44l0,0A1.53,1.53,0,0,0,44.86,63.89Z"/>
    <path class="cls-1" d="M65,48.81a3.56,3.56,0,1,1,2.46-6.14l0,0A3.56,3.56,0,0,1,65,48.81Zm0-5.09a1.53,1.53,0,1,0,.41,3,1.51,1.51,0,0,0,.67-.39,1.54,1.54,0,0,0,0-2.17l.68-.75-.7.73A1.53,1.53,0,0,0,65,43.72Z"/>
    <path class="cls-1" d="M57.71,21.49a3.56,3.56,0,1,1,2.45-6.14l.07.07a3.56,3.56,0,0,1-2.53,6.07Zm0-5.09a1.53,1.53,0,1,0,.41,3,1.51,1.51,0,0,0,.67-.39,1.53,1.53,0,0,0,0-2.17l0,0A1.53,1.53,0,0,0,57.71,16.39Z"/>
    <path class="cls-1" d="M30.16,13.42a3.56,3.56,0,1,1,2.45-6.14l.06.05a3.56,3.56,0,0,1-2.51,6.09Zm0-5.09a1.53,1.53,0,1,0,.41,3,1.51,1.51,0,0,0,.67-.39,1.54,1.54,0,0,0,0-2.17l0,0A1.53,1.53,0,0,0,30.16,8.33Z"/>
    <path class="cls-1" d="M30,17.27a7.24,7.24,0,0,1-5.14-2.12l-.1-.1a7.3,7.3,0,0,1,.1-10.17h0A7.27,7.27,0,1,1,30,17.27Zm-3.7-11a5.26,5.26,0,0,0-.07,7.33l.07.08a5.23,5.23,0,1,0,0-7.41Z"/>
    <path class="cls-1" d="M57.7,25.19a7.27,7.27,0,0,1-5.12-12.4h0A7.27,7.27,0,1,1,59.9,24.85,7.32,7.32,0,0,1,57.7,25.19Zm0-12.5A5.2,5.2,0,0,0,54,14.22h0a5.17,5.17,0,0,0-1.2,1.86,5.23,5.23,0,0,0,6.48,6.83,5.17,5.17,0,0,0,2.12-1.28,5.24,5.24,0,0,0-3.7-8.94Zm-4.42.82h0Z"/>
    <path class="cls-1" d="M17,65.47a7.26,7.26,0,0,1-1.78-14.3h0a7.3,7.3,0,0,1,6.92,1.9A7.26,7.26,0,0,1,17,65.47ZM17,53a5.35,5.35,0,0,0-1.31.16h0A5.21,5.21,0,1,0,17,53Zm-1.55-.82h0Z"/>
    <path class="cls-1" d="M44.86,72.68a7.27,7.27,0,0,1-5.14-12.4h0a7.27,7.27,0,0,1,10.28,0l.11.12a7.26,7.26,0,0,1-5.24,12.29Zm-3.7-11a5.24,5.24,0,1,0,7.5.1l-.08-.09a5.23,5.23,0,0,0-7.42,0Z"/>
    <path class="cls-1" d="M65,52.53a7.24,7.24,0,0,1-5-2l-.14-.13A7.23,7.23,0,1,1,65,52.53ZM65,40a5.32,5.32,0,0,0-1.14.12h0A5.23,5.23,0,0,0,61.33,49l.1.09A5.23,5.23,0,1,0,65,40Zm-1.35-.87h0Z"/>
    <path class="cls-1" d="M59,44.53a1,1,0,0,1-.26,0L48.11,41.64a1,1,0,1,1,.53-2l10.65,2.85a1,1,0,0,1-.26,2Z"/>
    <path class="cls-1" d="M27.05,36a1,1,0,0,1-.26,0L15.38,32.87a1,1,0,1,1,.53-2L27.32,34a1,1,0,0,1-.26,2Z"/>
    <path class="cls-1" d="M43.24,60.39a1,1,0,0,1-1-.75L39.39,48.93a1,1,0,0,1,2-.53l2.87,10.71a1,1,0,0,1-1,1.28Z"/>
    <path class="cls-1" d="M34.67,28.4a1,1,0,0,1-1-.75l-2.94-11a1,1,0,0,1,2-.53l2.94,11a1,1,0,0,1-1,1.28Z"/>
    <path class="cls-1" d="M45.2,31a1,1,0,0,1-.72-1.73l7.87-7.87a1,1,0,0,1,1.44,1.44L45.92,30.7A1,1,0,0,1,45.2,31Z"/>
    <path class="cls-1" d="M21.39,54.8a1,1,0,0,1-.72-1.73l8.23-8.23a1,1,0,1,1,1.44,1.44L22.11,54.5A1,1,0,0,1,21.39,54.8Z"/>
    <path class="cls-1" d="M36.85,43.72h0a1,1,0,0,1-.89-.62l-2.39-5.68a1,1,0,1,1,1.87-.79L37,40.36l3.68-6.83a1,1,0,0,1,1.79,1l-4.69,8.7A1,1,0,0,1,36.85,43.72Z"/>
  </g>
</svg>
