<?xml version="1.0" encoding="utf-8"?>
<!-- Generator: Adobe Illustrator 17.1.0, SVG Export Plug-In . SVG Version: 6.00 Build 0)  -->
<!DOCTYPE svg PUBLIC "-//W3C//DTD SVG 1.1//EN" "http://www.w3.org/Graphics/SVG/1.1/DTD/svg11.dtd">
<svg version="1.1" id="Capa_1" xmlns="http://www.w3.org/2000/svg" xmlns:xlink="http://www.w3.org/1999/xlink" x="0px" y="0px"
	 viewBox="0 0 2000 2000" enable-background="new 0 0 2000 2000" xml:space="preserve">
<g>
	<g>
		<path fill="#BCBCBC" d="M1000,0C612.3,0,296.9,315.4,296.9,703.1c0,131,36.3,258.8,105,369.7L960,1972.3
			c10.7,17.2,29.5,27.7,49.8,27.7c0.2,0,0.3,0,0.5,0c20.4-0.2,39.3-11,49.8-28.5l543.9-908.2c64.9-108.6,99.2-233.1,99.2-360.2
			C1703.1,315.4,1387.7,0,1000,0z M1503.4,1003.2l-494.5,825.7l-507.4-817.7c-57.2-92.3-88.2-198.8-88.2-308
			c0-323.1,263.6-586.7,586.7-586.7s586.3,263.6,586.3,586.7C1586.3,809.1,1557.4,912.8,1503.4,1003.2z"/>
	</g>
</g>
<g>
	<g>
		<path fill="#BCBCBC" d="M1000,351.6c-193.9,0-351.6,157.7-351.6,351.6c0,192.6,155.1,351.6,351.6,351.6
			c198.8,0,351.6-161.1,351.6-351.6C1351.6,509.3,1193.9,351.6,1000,351.6z M1000,938.3c-129.9,0-235.2-105.6-235.2-235.2
			C764.8,573.9,870.8,468,1000,468s234.8,105.9,234.8,235.2C1234.8,830.8,1132,938.3,1000,938.3z"/>
	</g>
</g>
</svg>
