<?xml version="1.0" encoding="utf-8"?>
<!-- Generator: Adobe Illustrator 17.1.0, SVG Export Plug-In . SVG Version: 6.00 Build 0)  -->
<!DOCTYPE svg PUBLIC "-//W3C//DTD SVG 1.1//EN" "http://www.w3.org/Graphics/SVG/1.1/DTD/svg11.dtd">
<svg version="1.1" id="Слой_1" xmlns="http://www.w3.org/2000/svg" xmlns:xlink="http://www.w3.org/1999/xlink" x="0px" y="0px"
	 viewBox="0 0 2000 2000" enable-background="new 0 0 2000 2000" xml:space="preserve">
<g>
	<path fill="#666666" d="M1458.9,2.6H541.1C242.7,2.6,0,245.3,0,543.8v917.2c0,298.4,242.7,541.1,541.1,541.1h917.2
		c298.4,0,541.1-242.7,541.1-541.1V543.8C2000,245.3,1757.3,2.6,1458.9,2.6L1458.9,2.6z M1882.8,1461.5c0,233.9-190.1,424-424,424
		H541.1c-233.9,0-424-190.1-424-424V543.8c0-233.9,190.1-424,424-424h917.2c233.9,0,424,190.1,424,424v917.7H1882.8z"/>
	<path fill="#666666" d="M1153.1,972.4c64.1-28.1,96.4-88,96.4-180.2c0-132.8-76-199.5-227.6-199.5H803.1
		c-17.2,0-32.3,4.2-45.3,12.5c-13,8.3-19.3,19.8-19.3,33.9v737c0,12,6.3,22.9,18.2,31.8s27.6,13.5,46.4,13.5h240.1
		c69.3,0,124.5-19.3,165.6-57.3c40.6-38,61.5-99,61.5-182.8v-24c0-53.1-9.9-93.2-29.7-120.8
		C1220.3,1008.9,1191.7,987.5,1153.1,972.4L1153.1,972.4z M884.4,721.9h126c28.6,0,51,8.3,67.7,25.5c16.1,17.2,24.5,40.1,24.5,69.8
		c0,30.2-7.8,54.2-23.4,71.4c-15.6,17.2-38,26-67.2,26H884.9V721.9H884.4z M1122.4,1168.8c0,82.3-36.5,123.4-109.9,123.4H884.4v-262
		h128.1c36.5,0,63.5,9.4,82.3,28.1c18.8,18.8,27.6,49.5,27.6,91.7V1168.8z"/>
</g>
</svg>
