<svg xmlns="http://www.w3.org/2000/svg" viewBox="0 0 75 75">
  <defs>
    <style>
      .cls-1 {
        fill: #28d9cd;
      }
    </style>
  </defs>
  <title>Монтажная область 7</title>
  <g id="_7" data-name="7">
    <path class="cls-1" d="M69.72,58h-64a3.06,3.06,0,0,1-3-3.14V6.7a3.06,3.06,0,0,1,3-3.14h64a3.06,3.06,0,0,1,3,3.14V54.86A3.06,3.06,0,0,1,69.72,58Zm-64-52.4a1,1,0,0,0-1,1.11V54.86a1,1,0,0,0,1,1.11h64a1,1,0,0,0,1-1.11V6.7a1,1,0,0,0-1-1.11ZM67.75,53.75H7.63a1,1,0,0,1-1-1V8.82a1,1,0,0,1,1-1H67.75a1,1,0,0,1,1,1V52.73A1,1,0,0,1,67.75,53.75Zm-59.11-2h58.1V9.84H8.64Z"/>
    <path class="cls-1" d="M51.93,72.71H22.87a1,1,0,0,1-1-1V67.6a1,1,0,0,1,1-1A5.59,5.59,0,0,0,28.45,61V57a1,1,0,0,1,1-1H44.71a1,1,0,0,1,1,1v3.41a6.21,6.21,0,0,0,6.2,6.2,1,1,0,0,1,1,1V71.7A1,1,0,0,1,51.93,72.71Zm-28-2h27V68.55a8.24,8.24,0,0,1-7.21-8.16V58H30.48v3a7.62,7.62,0,0,1-6.59,7.54Z"/>
    <path class="cls-1" d="M37.4,49.41a1,1,0,0,1-.6-.2l-15-11.06a1,1,0,0,1,0-1.63l15-11.06a1,1,0,0,1,1.2,0L53,36.52a1,1,0,0,1,0,1.63L38,49.21A1,1,0,0,1,37.4,49.41ZM24.13,37.33l13.27,9.8,13.27-9.8L37.4,27.52Z"/>
    <path class="cls-1" d="M37.4,38.34a1,1,0,0,1-.6-.2l-15-11.06a1,1,0,0,1,0-1.63l15-11.06a1,1,0,0,1,1.2,0L53,25.45a1,1,0,0,1,0,1.63L38,38.14A1,1,0,0,1,37.4,38.34ZM24.13,26.27l13.27,9.8,13.27-9.8L37.4,16.46Z"/>
    <path class="cls-1" d="M37.4,26.26a1,1,0,0,1-1-1v-10a1,1,0,0,1,2,0v10A1,1,0,0,1,37.4,26.26Z"/>
    <path class="cls-1" d="M52.37,37.58a1,1,0,0,1-1-1V26.27a1,1,0,1,1,2,0v10.3A1,1,0,0,1,52.37,37.58Z"/>
    <path class="cls-1" d="M37.4,49.41a1,1,0,0,1-1-1V37.33a1,1,0,1,1,2,0V48.39A1,1,0,0,1,37.4,49.41Z"/>
    <path class="cls-1" d="M22.42,38.34a1,1,0,0,1-1-1V26.27a1,1,0,1,1,2,0V37.33A1,1,0,0,1,22.42,38.34Z"/>
    <g>
      <path class="cls-1" d="M12.84,47.48a1,1,0,0,1-.72-.3,1,1,0,0,1-.3-.72,1,1,0,0,1,1.22-1l.19.06a1.07,1.07,0,0,1,.18.09l.15.13a1,1,0,0,1,0,1.43l-.15.13-.18.09-.19.05Z"/>
      <path class="cls-1" d="M11.83,38.79a1,1,0,0,1,1-1h0a1,1,0,0,1,1,1h0a1,1,0,0,1-1,1h0A1,1,0,0,1,11.83,38.79Zm0-7.68a1,1,0,0,1,1-1h0a1,1,0,0,1,1,1h0a1,1,0,0,1-1,1h0A1,1,0,0,1,11.83,31.12Zm0-7.68a1,1,0,0,1,1-1h0a1,1,0,0,1,1,1h0a1,1,0,0,1-1,1h0A1,1,0,0,1,11.83,23.44Z"/>
      <path class="cls-1" d="M12.84,16.78a1,1,0,0,1-.72-.3.68.68,0,0,1-.12-.16.82.82,0,0,1-.09-.17,1.09,1.09,0,0,1-.06-.2.92.92,0,0,1,0-.2,1,1,0,0,1,1.22-1l.19.06a1.07,1.07,0,0,1,.18.09l.15.13a1,1,0,0,1,.3.72.92.92,0,0,1,0,.2.7.7,0,0,1-.05.2,1.3,1.3,0,0,1-.09.17.71.71,0,0,1-.13.16l-.15.13-.18.09-.19.05Z"/>
    </g>
  </g>
</svg>
