<?xml version="1.0" encoding="utf-8"?>
<!-- Generator: Adobe Illustrator 17.1.0, SVG Export Plug-In . SVG Version: 6.00 Build 0)  -->
<!DOCTYPE svg PUBLIC "-//W3C//DTD SVG 1.1//EN" "http://www.w3.org/Graphics/SVG/1.1/DTD/svg11.dtd">
<svg version="1.1" id="Layer_1" xmlns="http://www.w3.org/2000/svg" xmlns:xlink="http://www.w3.org/1999/xlink" x="0px" y="0px"
	 viewBox="0 0 2000 2000" enable-background="new 0 0 2000 2000" xml:space="preserve">
<path fill="#666666" d="M316,1935.3c-81,0-161.9-30.8-223.6-92.4c-123.3-123.3-123.3-323.8,0-447.1L1304,184.2
	c77-77,179.4-119.4,288.4-119.4s211.3,42.4,288.4,119.4c159,159,159,417.7,0,576.8l-870.4,870.4c-18.7,18.7-49.1,18.7-67.8,0
	s-18.7-49.1,0-67.8L1813,693.2c121.6-121.6,121.6-319.6,0-441.2c-58.9-58.9-137.3-91.4-220.6-91.4s-161.7,32.5-220.6,91.4
	L160.2,1463.5c-41.6,41.6-64.5,96.9-64.5,155.8c0,58.9,22.9,114.2,64.5,155.8c85.9,85.9,225.7,85.9,311.6,0L1426,820.9
	c50.1-50.1,50.1-131.5,0-181.6c-50.1-50.1-131.5-50.1-181.6,0l-613,613c-18.7,18.7-49.1,18.7-67.8,0c-18.7-18.7-18.7-49.1,0-67.8
	l613-613c87.4-87.4,229.7-87.4,317.1,0c87.4,87.4,87.4,229.7,0,317.1l-954.2,954.2C477.9,1904.4,397,1935.3,316,1935.3z"/>
</svg>
